<?xml version="1.0" standalone="no"?>
<!DOCTYPE svg PUBLIC "-//W3C//DTD SVG 20010904//EN"
 "http://www.w3.org/TR/2001/REC-SVG-20010904/DTD/svg10.dtd">
<svg version="1.0" xmlns="http://www.w3.org/2000/svg"
 width="640.000000pt" height="640.000000pt" viewBox="0 0 640.000000 640.000000"
 preserveAspectRatio="xMidYMid meet">
<metadata>
Created by potrace 1.11, written by Peter Selinger 2001-2013
</metadata>
<g transform="translate(0.000000,640.000000) scale(0.100000,-0.100000)"
fill="#000000" stroke="none">
<path d="M4000 5932 c-33 -16 -35 -19 -33 -67 1 -27 2 -53 2 -57 1 -5 28 -8
61 -8 60 0 60 0 60 30 0 16 5 41 12 56 11 23 10 28 -11 45 -29 24 -46 24 -91
1z"/>
<path d="M0 5446 c0 -29 42 -60 215 -161 221 -129 352 -210 395 -245 101 -83
170 -106 170 -58 0 15 5 18 20 14 11 -3 29 -9 40 -12 12 -3 22 -17 26 -39 3
-19 10 -33 14 -30 4 2 15 -4 24 -14 16 -17 16 -19 -4 -24 -14 -4 -20 0 -21 11
0 12 -2 13 -6 4 -3 -8 4 -22 15 -33 26 -23 39 -25 21 -2 -13 15 -11 16 14 9
28 -7 38 8 11 18 -8 3 -12 11 -9 16 4 6 2 17 -4 24 -7 9 -6 19 7 37 9 13 17
31 17 39 0 21 30 24 67 6 17 -9 43 -16 58 -16 39 0 52 -18 29 -41 -25 -25 -25
-59 1 -66 11 -3 20 -9 20 -14 0 -13 35 -11 66 3 22 11 28 10 40 -6 9 -13 19
-16 31 -11 10 5 24 7 31 6 17 -3 15 44 -3 59 -11 9 -25 10 -54 3 -36 -10 -40
-8 -64 22 -20 25 -23 35 -14 43 24 19 57 23 127 16 62 -6 70 -9 70 -28 1 -58
26 -85 69 -71 14 4 21 17 23 43 3 33 6 37 34 40 24 2 39 -4 58 -22 31 -32 36
-32 36 -4 0 20 1 20 20 3 16 -15 30 -16 84 -11 53 6 65 11 69 28 3 11 10 17
16 13 16 -9 81 17 81 32 0 8 14 13 40 13 35 0 40 -3 40 -22 0 -13 -9 -34 -20
-48 -32 -40 -21 -68 20 -55 22 7 28 34 8 36 -7 1 -2 4 11 8 21 6 22 8 10 21
-17 19 -21 62 -5 72 15 11 56 10 56 -1 0 -4 27 -11 61 -15 49 -5 64 -3 77 11
16 15 17 15 20 0 2 -9 10 -17 18 -17 8 0 26 -7 40 -16 21 -14 31 -15 64 -5 22
6 40 17 40 23 0 13 81 0 96 -15 14 -13 33 -7 27 9 -4 10 1 17 16 21 11 3 21
11 21 18 0 8 9 10 25 7 28 -5 34 -32 8 -33 -11 0 -13 -3 -5 -6 6 -2 10 -9 6
-14 -3 -5 -13 -5 -24 1 -13 7 -21 7 -25 0 -3 -5 -3 -10 0 -10 4 0 -4 -13 -18
-29 -14 -17 -30 -54 -37 -83 -7 -29 -19 -62 -26 -73 -8 -12 -13 -34 -13 -50 1
-53 -8 -109 -24 -155 -9 -25 -17 -75 -17 -112 0 -38 -2 -68 -5 -68 -3 0 -16 7
-28 15 -16 10 -32 12 -53 6 -16 -4 -67 -4 -114 1 -47 4 -90 6 -97 3 -7 -2 -26
0 -42 6 -21 7 -36 7 -50 -1 -14 -7 -27 -7 -38 -1 -10 5 -98 11 -196 14 -97 4
-182 9 -188 12 -5 4 -21 4 -35 1 -26 -7 -25 -7 13 -32 21 -14 57 -45 81 -67
l43 -42 112 -2 c62 -2 164 -5 227 -8 63 -4 137 -6 164 -6 27 1 55 -4 62 -10
10 -9 22 -8 44 1 26 11 33 10 59 -11 29 -23 32 -31 36 -92 2 -30 10 -42 28
-42 7 0 13 -10 15 -22 2 -13 -1 -23 -6 -23 -19 0 -32 -87 -26 -176 7 -130 7
-158 -1 -184 -5 -17 -4 -21 5 -15 9 6 11 4 5 -5 -5 -8 -8 -53 -7 -101 1 -50
-2 -90 -8 -94 -5 -3 -10 -16 -11 -28 -1 -12 -5 -2 -10 23 -6 28 -6 60 0 85 11
48 4 95 -15 95 -17 0 -18 12 -3 27 18 18 1 33 -37 33 -25 0 -34 -4 -34 -16 0
-10 6 -14 15 -10 27 10 16 -2 -17 -18 -31 -16 -98 -13 -98 4 0 5 -7 16 -16 25
-13 12 -19 13 -31 4 -11 -10 -11 -14 -1 -20 12 -8 -70 -15 -117 -10 -11 2 -40
4 -65 5 -70 4 -73 5 -66 21 7 20 -13 19 -35 -1 -10 -9 -36 -16 -61 -16 -71 -1
-72 0 -58 17 20 24 2 31 -31 12 -40 -22 -70 -22 -97 3 -18 17 -25 19 -42 8
-11 -7 -20 -16 -20 -20 0 -5 -20 -8 -45 -8 -34 0 -45 4 -45 15 0 26 -30 30
-46 6 -15 -21 -74 -31 -74 -13 0 9 -44 32 -60 32 -17 0 -11 -28 8 -33 20 -5
-44 -6 -74 -1 -13 2 -27 17 -34 34 -10 25 -18 30 -39 28 -21 -2 -27 -9 -29
-35 -3 -30 -4 -31 -40 -26 -20 3 -38 10 -40 15 -5 11 -32 10 -32 -2 0 -5 5
-10 12 -10 6 0 8 -3 5 -7 -6 -6 -333 -5 -612 2 -125 2 -216 13 -230 26 -5 5
-31 9 -57 9 l-48 0 0 -174 0 -174 38 -13 c20 -7 60 -13 89 -14 64 -1 93 -23
93 -72 0 -50 -50 -93 -108 -93 -23 0 -58 7 -77 14 l-35 15 0 -261 0 -261 23
25 c57 61 107 40 107 -46 0 -139 23 -196 78 -196 35 0 72 26 72 51 0 29 33 23
47 -9 17 -37 60 -51 146 -48 40 2 95 -1 122 -6 28 -5 131 -11 231 -13 204 -3
223 1 269 60 17 20 55 63 86 94 31 31 65 78 77 104 24 54 70 87 123 87 23 0
75 18 135 47 101 47 309 109 484 143 52 10 111 25 130 33 23 10 71 15 137 15
76 1 108 5 127 17 18 12 26 13 32 4 11 -19 4 -143 -9 -151 -11 -7 -3 -12 15
-9 5 0 9 -9 10 -22 0 -12 4 -2 7 23 4 25 3 53 -2 63 -5 10 -6 22 -2 25 3 3 8
-4 12 -16 3 -12 9 -22 15 -22 5 0 4 -8 -2 -19 -5 -11 -9 -30 -9 -43 1 -20 2
-21 6 -3 7 27 15 35 42 40 18 3 21 2 11 -10 -8 -10 -7 -16 7 -27 17 -12 28
-32 52 -90 15 -35 22 -79 21 -122 -1 -34 1 -38 20 -33 11 3 20 1 20 -4 0 -5 7
-9 15 -9 20 0 57 -38 50 -50 -3 -5 6 -12 20 -16 14 -3 25 -12 25 -20 0 -17
-17 -18 -23 -1 -3 6 -6 2 -6 -11 -1 -19 3 -22 20 -17 15 5 22 2 26 -13 2 -11
18 -29 34 -41 31 -23 40 -47 13 -37 -12 4 -14 1 -9 -14 5 -17 2 -20 -27 -20
-28 -1 -31 -2 -17 -13 9 -7 18 -21 20 -32 3 -11 11 -20 18 -20 8 0 16 -10 17
-23 2 -12 -1 -22 -6 -22 -6 0 -10 6 -10 13 0 13 -53 17 -66 4 -8 -7 -84 70
-84 85 0 4 5 10 12 14 16 10 -20 34 -53 34 -20 0 -30 7 -39 30 -7 17 -14 39
-15 48 -1 9 -5 29 -9 44 -5 16 -4 41 3 58 6 18 6 28 1 25 -6 -4 -10 -1 -10 4
0 6 4 11 8 11 8 0 6 129 -2 137 -8 9 -26 -128 -26 -203 0 -97 16 -160 66 -255
56 -109 142 -189 247 -231 71 -28 95 -33 183 -34 159 -3 267 23 364 87 163
109 257 263 301 489 24 123 24 187 0 240 -24 54 -27 43 -36 -110 -4 -63 -11
-118 -16 -121 -5 -3 -7 -14 -3 -24 6 -13 4 -16 -5 -10 -10 6 -12 -2 -9 -31 3
-22 3 -32 1 -23 -3 14 -9 13 -32 -10 -40 -38 -61 -77 -60 -108 2 -24 2 -25 6
-5 2 12 9 22 14 22 6 0 7 5 4 10 -3 6 -2 10 3 10 19 0 19 -13 0 -46 -15 -25
-24 -32 -31 -25 -25 25 -72 -6 -62 -40 5 -16 1 -19 -24 -19 -24 0 -31 -4 -31
-20 0 -11 -7 -20 -15 -20 -8 0 -15 -5 -15 -11 0 -5 -4 -8 -10 -4 -5 3 -6 13
-3 23 5 14 3 15 -8 5 -23 -22 -39 -15 -39 17 0 20 -5 30 -15 30 -8 0 -15 5
-15 12 0 6 -3 8 -7 4 -4 -4 -8 -15 -8 -24 0 -13 -8 -17 -33 -16 -51 3 -67 11
-52 29 10 12 9 15 -4 15 -9 0 -16 -8 -16 -20 0 -11 5 -20 10 -20 6 0 10 -6 10
-14 0 -17 -72 -14 -78 3 -2 6 -10 11 -18 11 -32 0 -11 19 24 22 24 2 36 7 34
16 -2 10 8 13 35 11 52 -3 63 -1 63 11 0 6 -10 10 -22 10 -16 1 -11 5 17 15
22 8 46 15 54 15 16 0 51 38 51 54 0 6 9 19 20 29 11 9 20 24 20 32 0 17 31
20 47 4 7 -7 18 -1 37 21 14 17 26 36 26 40 0 5 7 7 15 4 11 -5 13 -2 8 12 -5
12 -3 15 6 9 20 -12 29 12 24 65 -3 42 -1 48 18 53 11 3 18 10 15 15 -9 15 4
42 20 42 8 0 14 10 14 25 0 14 -5 25 -11 25 -6 0 2 18 18 39 15 22 31 37 35
34 5 -2 8 2 8 10 0 8 13 33 30 55 l30 41 32 -18 c42 -24 218 -43 260 -29 44
16 98 1 134 -37 24 -25 43 -35 80 -40 27 -4 69 -16 94 -27 29 -12 56 -17 77
-13 18 3 45 0 65 -9 56 -25 72 -29 96 -27 27 3 69 -22 96 -56 10 -13 36 -31
58 -40 24 -10 49 -31 68 -57 15 -23 36 -48 45 -56 19 -16 114 -132 168 -206
46 -64 77 -73 242 -71 l120 2 11 35 c17 50 34 57 85 33 40 -18 116 -33 239
-47 56 -7 97 -14 130 -23 24 -6 174 -14 250 -12 93 2 123 1 223 -5 l107 -6 0
129 0 130 -47 7 c-27 5 -67 7 -90 6 -77 -5 -126 -4 -273 2 -172 8 -228 14
-235 27 -7 11 -8 11 139 14 65 2 122 7 126 12 10 9 12 78 4 143 -4 31 4 87 26
180 34 148 90 443 90 476 0 40 -30 55 -96 48 -33 -4 -122 1 -204 10 -80 9
-191 21 -248 25 -57 5 -125 17 -153 27 -41 15 -54 16 -69 6 -16 -10 -27 -9
-55 2 -26 11 -43 12 -70 5 -25 -7 -46 -7 -67 0 -22 8 -41 8 -68 0 -30 -9 -43
-8 -67 4 -25 13 -37 14 -67 5 -30 -10 -42 -9 -64 4 -28 16 -40 15 -79 -4 -18
-9 -29 -8 -48 2 -21 11 -32 11 -59 2 -39 -14 -76 -16 -76 -3 0 18 -40 22 -75
10 -30 -11 -39 -11 -62 3 -24 14 -30 14 -70 0 -35 -13 -47 -14 -63 -4 -27 17
-56 15 -86 -5 -25 -16 -27 -16 -44 7 -18 24 -20 24 -70 11 -48 -12 -53 -12
-74 8 -28 26 -47 27 -69 1 -22 -26 -41 -25 -66 2 -19 20 -24 20 -60 8 -43 -14
-51 -32 -51 -119 0 -26 -7 -56 -15 -67 -13 -17 -15 -11 -16 66 -1 47 -4 119
-7 160 -5 80 -6 130 -2 262 2 66 0 84 -14 93 -14 11 -15 14 -1 25 10 8 15 30
15 61 0 53 8 59 55 37 19 -8 31 -8 51 0 20 10 31 9 52 -2 19 -10 32 -11 49 -3
16 7 34 7 57 0 21 -7 39 -7 50 -1 10 6 29 6 44 2 25 -7 78 -10 317 -19 55 -2
161 -6 235 -9 74 -3 221 -8 325 -11 105 -3 226 -8 270 -10 44 -2 177 -7 295
-10 118 -3 257 -8 307 -11 93 -6 127 -1 258 35 55 15 60 19 62 46 2 17 7 75
13 130 5 55 12 156 15 225 7 145 9 156 35 163 10 3 21 15 23 28 3 13 17 90 32
170 15 81 25 151 22 156 -4 6 -62 15 -129 21 -111 10 -177 14 -473 27 -94 4
-355 19 -630 35 -88 5 -230 12 -315 16 -85 3 -175 7 -200 9 -25 3 -157 9 -295
14 -137 6 -297 13 -355 16 -58 3 -222 10 -365 16 -143 6 -287 12 -320 14 -213
12 -289 16 -450 25 -99 6 -281 14 -405 20 -124 5 -304 14 -400 19 -751 44
-1033 55 -1073 43 -42 -13 -257 -9 -281 5 -14 8 -28 7 -56 -4 -35 -14 -41 -13
-85 6 -26 12 -58 21 -71 21 -12 0 -33 4 -46 9 -13 5 -116 12 -230 16 l-208 7
0 -26z m4627 -325 c62 -63 110 -68 159 -16 30 33 37 35 71 29 20 -4 49 -19 63
-34 61 -62 112 -67 167 -15 20 19 42 35 49 35 6 0 26 -11 45 -25 86 -63 141
-70 192 -25 43 37 65 38 110 1 52 -41 117 -57 159 -40 18 7 38 21 45 30 12 16
63 16 63 -1 0 -5 16 -18 36 -31 51 -31 141 -32 182 -2 28 21 30 21 48 4 35
-33 115 -56 187 -54 53 1 67 -2 63 -12 -2 -7 -2 -16 2 -20 10 -10 9 -29 -3
-37 -17 -12 -352 -9 -656 7 -156 7 -347 17 -424 20 -77 3 -201 10 -275 15
-198 14 -321 12 -344 -5 -17 -13 -18 -19 -8 -53 8 -24 12 -116 12 -240 0 -169
2 -203 16 -216 19 -20 44 -20 69 -2 17 12 18 17 7 40 -7 15 -10 46 -8 69 3 23
8 83 11 132 7 100 23 135 60 135 31 0 77 -20 90 -40 11 -17 37 -169 36 -212 0
-34 24 -38 32 -5 3 12 11 42 18 67 6 25 13 59 14 75 1 17 7 42 14 58 9 24 15
27 60 27 58 0 61 -4 73 -105 18 -145 20 -187 8 -214 -10 -25 -8 -32 14 -56 14
-15 39 -29 56 -31 50 -6 59 26 70 258 8 173 12 204 27 220 17 17 29 17 193 7
159 -10 177 -13 193 -33 15 -19 17 -43 13 -251 l-4 -230 -29 -5 c-33 -6 -16
-6 -423 3 -332 8 -556 15 -730 23 -58 2 -204 6 -325 8 -121 2 -237 7 -258 11
l-37 7 2 52 c1 28 -2 57 -6 65 -7 11 -5 13 7 8 11 -4 14 -2 10 8 -3 8 -9 13
-13 10 -9 -6 -16 31 -26 140 -5 54 -13 80 -36 113 -21 31 -29 52 -26 72 3 21
0 30 -14 33 -10 3 -18 11 -18 17 0 7 7 10 15 6 8 -3 15 -1 15 4 0 6 -4 10 -10
10 -5 0 -10 5 -10 11 0 7 9 9 21 6 19 -5 27 -1 81 50 16 14 22 13 72 -21 30
-20 61 -36 68 -36 8 0 28 14 45 31 31 29 32 29 42 10 6 -11 11 -33 11 -50 0
-30 1 -31 50 -31 29 0 50 -5 50 -11 0 -5 5 -7 10 -4 6 4 22 -1 37 -10 20 -13
27 -14 33 -5 5 9 20 10 43 6 24 -5 37 -3 41 6 5 10 7 10 12 1 8 -17 43 -16 50
0 3 10 18 13 52 9 l47 -4 17 105 c9 58 24 117 33 131 23 34 58 33 92 -3z
m-3237 -85 c0 -2 -7 -6 -15 -10 -8 -3 -15 -1 -15 4 0 6 7 10 15 10 8 0 15 -2
15 -4z m-470 -126 c0 -5 -2 -10 -4 -10 -3 0 -8 5 -11 10 -3 6 -1 10 4 10 6 0
11 -4 11 -10z m1865 -246 c8 3 15 1 15 -3 0 -5 -6 -12 -12 -14 -7 -3 6 -4 29
-3 27 2 41 -1 40 -8 -1 -6 15 -12 37 -14 28 -3 40 -9 43 -23 4 -13 11 -18 21
-14 10 4 13 0 9 -14 -3 -14 1 -20 18 -23 26 -5 58 9 50 22 -7 12 12 23 26 14
8 -4 7 -9 -2 -15 -8 -5 -9 -9 -4 -9 6 0 21 9 35 20 20 16 22 20 8 20 -26 0
-22 20 5 21 12 1 26 1 30 0 63 -11 269 2 292 18 6 4 17 7 25 6 8 -1 27 -3 43
-3 16 -1 27 -8 27 -16 0 -8 18 -21 40 -30 22 -9 40 -22 40 -30 0 -8 7 -16 15
-20 24 -9 80 -143 89 -212 11 -82 18 -132 23 -158 4 -24 2 -28 -11 -23 -9 4
-65 14 -126 22 -92 14 -126 15 -212 5 -57 -7 -115 -12 -130 -11 -15 0 -30 -4
-33 -9 -3 -6 -16 -5 -32 1 -15 6 -29 6 -32 1 -9 -13 -133 -15 -141 -2 -4 6
-36 12 -72 13 -36 1 -64 5 -62 8 2 4 -19 7 -46 7 -28 0 -56 4 -63 10 -12 10
-40 9 -67 -1 -8 -3 -26 -5 -40 -5 -27 2 -105 -9 -160 -22 -88 -20 -87 -20 -88
-2 -5 65 0 181 10 220 25 103 94 222 119 206 12 -7 49 24 49 42 0 8 6 11 15 8
8 -4 15 -1 15 6 0 6 4 9 9 6 4 -3 22 -1 39 3 20 6 34 5 42 -2 9 -9 15 -8 23 5
8 12 15 14 24 6 7 -5 20 -8 28 -4z m3283 -56 c7 -7 12 -27 12 -45 0 -27 -4
-33 -21 -33 -36 0 -58 18 -52 42 11 45 37 60 61 36z m-258 -64 c0 -25 23 -65
31 -53 9 15 52 5 74 -17 33 -34 -7 -101 -52 -89 -13 3 -23 1 -23 -5 0 -15 -42
-22 -70 -12 -20 7 -25 16 -26 48 -1 44 7 53 51 55 21 1 24 3 9 6 -21 4 -50 65
-40 82 9 13 46 1 46 -15z m224 -71 c4 -5 24 -8 44 -8 35 0 37 -2 34 -29 -2
-16 2 -32 9 -36 8 -5 4 -10 -11 -15 -12 -4 -25 -3 -29 3 -3 5 -15 12 -26 14
-14 2 -21 -3 -23 -19 -3 -19 -10 -23 -40 -23 l-37 0 3 48 c3 37 8 50 25 59 28
13 42 15 51 6z m-324 -123 c0 -5 -5 -10 -11 -10 -5 0 -7 5 -4 10 3 6 8 10 11
10 2 0 4 -4 4 -10z m-2227 -267 c-7 -2 -21 -2 -30 0 -10 3 -4 5 12 5 17 0 24
-2 18 -5z m-1064 -156 c12 -44 29 -93 37 -109 19 -36 73 -88 91 -88 7 0 13 -4
13 -9 0 -9 51 -33 66 -30 5 1 46 1 92 0 81 -1 82 -2 72 -22 -7 -11 -27 -27
-45 -35 -19 -7 -45 -25 -59 -39 -14 -14 -30 -25 -36 -25 -6 0 -9 -4 -6 -9 3
-4 -4 -8 -17 -7 -17 1 -22 -5 -22 -22 0 -13 -6 -26 -13 -31 -6 -4 -15 -22 -18
-41 -6 -28 -5 -32 9 -27 14 5 17 0 17 -27 0 -18 -3 -35 -6 -39 -10 -10 -34 20
-34 43 0 16 -4 20 -16 16 -18 -7 -74 14 -74 26 0 5 -9 8 -20 8 -12 0 -20 7
-20 16 0 10 -6 14 -15 10 -8 -3 -15 -1 -15 4 0 6 5 10 10 10 6 0 10 5 10 10 0
6 -6 10 -14 10 -24 0 -41 69 -40 165 1 77 24 329 30 322 1 -1 11 -37 23 -80z
m722 31 c16 -18 29 -36 29 -40 0 -22 58 -128 87 -158 55 -58 81 -128 53 -145
-6 -4 -8 -10 -5 -15 7 -11 -20 -20 -66 -20 -22 0 -51 -7 -64 -16 -20 -13 -28
-14 -40 -4 -8 7 -38 14 -66 16 -29 2 -55 8 -59 14 -3 6 -28 9 -54 8 -68 -2
-86 38 -48 105 18 33 78 97 90 97 4 0 7 4 7 9 0 5 3 13 8 17 4 4 7 14 7 22 0
28 61 142 76 142 8 0 28 -15 45 -32z m651 -228 c3 -83 -11 -222 -22 -215 -4 3
-15 -13 -24 -35 -9 -22 -23 -40 -31 -40 -8 0 -15 -5 -15 -12 0 -6 -3 -9 -6 -5
-4 3 -19 0 -34 -8 -15 -8 -30 -11 -34 -8 -3 4 -6 2 -6 -4 0 -5 -9 -20 -19 -32
l-19 -22 -8 43 c-4 24 -7 62 -5 86 2 42 -1 46 -79 123 -44 44 -85 77 -90 74
-6 -3 -10 -2 -10 4 0 7 34 10 90 10 58 -1 96 3 105 11 10 8 15 9 15 2 0 -12
23 6 88 69 27 25 43 53 57 99 l19 63 13 -69 c7 -38 14 -98 15 -134z m-1512 41
c0 -5 -7 -11 -14 -14 -10 -4 -13 -1 -9 9 6 15 23 19 23 5z m-1812 -158 c21
-42 32 -112 21 -136 -8 -18 -7 -32 7 -63 20 -43 21 -56 10 -96 -5 -18 -3 -44
7 -72 12 -34 12 -47 3 -57 -20 -23 -37 -69 -25 -69 6 0 5 -6 -3 -15 -7 -8 -24
-28 -38 -45 -28 -35 -45 -38 -60 -11 -20 38 -9 432 16 559 5 27 49 31 62 5z
m2932 -43 c0 -12 -48 -33 -59 -26 -6 4 -11 14 -11 23 0 13 2 13 16 2 15 -12
16 -11 10 9 -7 21 -6 21 18 11 14 -7 26 -15 26 -19z m-1750 -165 c14 -17 7
-35 -26 -80 -15 -20 -15 -20 -30 -1 -19 27 -18 73 4 85 24 15 38 13 52 -4z
m967 -37 c-3 -8 -6 -5 -6 6 -1 11 2 17 5 13 3 -3 4 -12 1 -19z m413 -18 c0 5
16 10 35 10 26 0 35 -4 36 -17 0 -14 2 -13 9 5 11 26 57 31 67 6 5 -15 7 -15
15 0 10 18 43 22 53 6 5 -8 11 -7 20 0 8 7 19 9 24 6 17 -11 0 -36 -24 -36
-13 0 -27 -5 -31 -11 -3 -6 -15 -8 -26 -5 -12 2 -28 -2 -36 -11 -22 -22 -174
-13 -201 12 -14 12 -20 13 -23 4 -7 -20 -38 -2 -38 21 0 13 7 20 20 20 11 0
20 -5 20 -12 0 -8 6 -6 17 5 15 15 19 15 40 2 13 -9 23 -11 23 -5z m535 10 c3
-6 -1 -7 -9 -4 -18 7 -21 14 -7 14 6 0 13 -4 16 -10z m-675 -24 c0 -3 -4 -8
-10 -11 -5 -3 -10 -1 -10 4 0 6 5 11 10 11 6 0 10 -2 10 -4z m2573 -20 c14
-11 17 -30 17 -130 0 -116 0 -116 -26 -128 -23 -11 -29 -10 -46 12 -19 23 -20
34 -14 130 8 126 23 151 69 116z m-2077 -31 c-10 -14 -23 -28 -31 -31 -8 -3
-11 -12 -8 -20 4 -12 -17 -14 -127 -14 -85 0 -129 4 -125 10 3 6 16 8 28 5 12
-3 36 -1 52 4 17 5 22 10 12 10 -10 1 -15 6 -12 11 4 6 15 8 26 5 11 -4 26 0
35 9 9 10 24 14 39 10 12 -3 26 -1 29 5 4 5 13 8 20 5 8 -3 27 1 43 9 35 19
40 14 19 -18z m-455 -36 c5 -11 20 -19 34 -19 14 0 25 -4 25 -10 0 -16 -93
-12 -118 5 -18 13 -20 19 -10 34 14 22 54 16 69 -10z m129 7 c0 -3 -4 -8 -10
-11 -5 -3 -10 -1 -10 4 0 6 5 11 10 11 6 0 10 -2 10 -4z m404 -78 c14 -9 1
-22 -13 -13 -6 3 -11 16 -10 28 0 15 2 17 6 7 3 -8 11 -18 17 -22z m-48 4 c10
-6 26 -62 18 -62 -1 0 -10 -3 -18 -6 -12 -4 -15 -2 -10 9 3 8 1 18 -5 22 -6 3
-11 0 -11 -8 0 -8 -7 -17 -15 -21 -8 -3 -12 -11 -9 -19 9 -24 -31 -50 -65 -42
-26 5 -31 11 -31 34 0 25 3 28 28 25 15 -2 21 -1 15 2 -23 10 -13 24 17 24 17
0 30 5 30 10 0 6 -8 10 -17 10 -21 0 -6 16 22 23 31 7 39 7 51 -1z m1628 -8
c19 -7 21 -63 4 -110 -9 -25 -9 -39 0 -58 11 -25 13 -25 149 -27 76 -1 175 -1
221 0 48 1 89 -2 96 -8 16 -14 10 -52 -17 -110 -28 -61 -17 -75 66 -81 63 -5
99 -21 83 -37 -12 -13 -278 -7 -310 6 -28 11 -30 19 -11 63 9 23 -28 58 -62
58 -17 0 -35 -9 -48 -25 -17 -22 -30 -26 -96 -30 -87 -6 -111 6 -87 44 7 12
16 21 20 21 11 0 10 44 -2 74 -8 23 -15 26 -60 26 -56 0 -56 0 -41 92 4 27 4
51 -2 57 -13 13 28 51 57 51 13 0 31 -3 40 -6z m-4854 -95 c0 -15 -39 -49 -55
-49 -16 0 -20 27 -7 46 15 22 62 25 62 3z m2690 -20 c0 -4 -7 -6 -15 -3 -8 4
-15 10 -15 15 0 4 7 6 15 3 8 -4 15 -10 15 -15z m-2019 -9 c32 -18 24 -56 -21
-96 -31 -28 -40 -44 -40 -69 0 -36 -13 -45 -62 -45 -30 0 -31 0 -25 43 6 45
15 65 60 135 28 43 50 52 88 32z m4863 -30 c41 -15 36 -62 -11 -105 -21 -19
-42 -33 -48 -31 -5 2 -21 -1 -34 -6 -29 -11 -50 13 -51 57 0 23 9 38 37 62 40
34 65 39 107 23z m-2124 -69 c0 -5 -7 -11 -15 -15 -15 -5 -20 5 -8 17 9 10 23
9 23 -2z m-3038 -53 c-9 -9 -12 -7 -12 12 0 19 3 21 12 12 9 -9 9 -15 0 -24z
m28 -38 c0 -17 -12 -40 -21 -40 -5 0 -9 13 -9 30 0 22 4 28 15 24 8 -4 15 -10
15 -14z m2040 -21 c0 -5 -4 -9 -10 -9 -5 0 -10 7 -10 16 0 8 5 12 10 9 6 -3
10 -10 10 -16z m870 -43 c0 -7 -6 -19 -14 -25 -11 -9 -12 -6 -8 14 5 26 22 35
22 11z m-198 -168 c-6 -6 -15 -8 -19 -4 -4 4 -1 11 7 16 19 12 27 3 12 -12z
m-47 -69 c-4 -5 -13 -9 -22 -9 -13 0 -13 3 -3 15 13 15 35 11 25 -6z m-615
-65 c0 -7 -8 -10 -20 -7 -11 3 -20 9 -20 14 0 4 9 7 20 6 11 -1 20 -7 20 -13z
m224 -6 c-5 -7 -2 -9 9 -5 11 4 14 2 10 -9 -6 -18 -11 -18 -28 0 -14 13 -10
26 7 26 5 0 6 -5 2 -12z m-236 -33 c-3 -3 -9 2 -12 12 -6 14 -5 15 5 6 7 -7
10 -15 7 -18z m862 15 c0 -5 -4 -10 -10 -10 -5 0 -10 5 -10 10 0 6 5 10 10 10
6 0 10 -4 10 -10z m-670 -10 c0 -5 -4 -10 -10 -10 -5 0 -10 5 -10 10 0 6 5 10
10 10 6 0 10 -4 10 -10z m425 -50 c3 -5 -1 -10 -10 -10 -9 0 -13 5 -10 10 3 6
8 10 10 10 2 0 7 -4 10 -10z m50 0 c3 -5 1 -10 -4 -10 -6 0 -11 5 -11 10 0 6
2 10 4 10 3 0 8 -4 11 -10z m-98 -16 c-3 -3 -12 -4 -19 -1 -8 3 -5 6 6 6 11 1
17 -2 13 -5z m60 -20 c-3 -3 -12 -4 -19 -1 -8 3 -5 6 6 6 11 1 17 -2 13 -5z"/>
<path d="M3780 4949 c0 -5 5 -7 10 -4 6 3 10 8 10 11 0 2 -4 4 -10 4 -5 0 -10
-5 -10 -11z"/>
<path d="M4025 4720 c3 -5 10 -10 16 -10 5 0 9 5 9 10 0 6 -7 10 -16 10 -8 0
-12 -4 -9 -10z"/>
<path d="M4195 4550 c-10 -16 4 -30 30 -30 32 0 40 16 16 29 -25 14 -38 14
-46 1z"/>
<path d="M4832 4449 c2 -7 21 -14 42 -16 50 -3 43 21 -8 25 -28 2 -37 0 -34
-9z"/>
<path d="M5105 2908 c-11 -6 -21 -12 -23 -13 -1 -1 3 -14 9 -29 24 -51 79 -41
79 14 0 37 -27 49 -65 28z"/>
<path d="M1065 4750 c3 -5 8 -10 11 -10 2 0 4 5 4 10 0 6 -5 10 -11 10 -5 0
-7 -4 -4 -10z"/>
<path d="M1778 4743 c-18 -5 -25 -23 -9 -23 5 0 11 -9 14 -20 7 -28 36 -25 47
6 16 40 0 51 -52 37z"/>
<path d="M1406 4685 c4 -8 16 -15 28 -15 12 0 27 -5 34 -12 7 -7 12 -9 12 -4
0 14 -25 33 -52 39 -22 6 -26 4 -22 -8z"/>
<path d="M2295 4040 c3 -5 8 -10 11 -10 2 0 4 5 4 10 0 6 -5 10 -11 10 -5 0
-7 -4 -4 -10z"/>
<path d="M3860 4030 c0 -5 5 -10 10 -10 6 0 10 5 10 10 0 6 -4 10 -10 10 -5 0
-10 -4 -10 -10z"/>
<path d="M3862 3968 c-2 -25 1 -37 8 -33 12 7 14 62 3 68 -5 3 -9 -13 -11 -35z"/>
<path d="M1937 3785 c-5 -11 0 -15 19 -15 16 0 24 5 22 13 -7 18 -35 20 -41 2z"/>
<path d="M4018 2936 c-23 -17 -23 -27 -2 -19 14 5 16 2 10 -23 -5 -21 -4 -25
4 -14 5 8 10 25 10 37 0 12 8 24 18 26 14 4 14 5 -3 6 -11 0 -28 -6 -37 -13z"/>
<path d="M2334 2865 c3 -37 9 -72 14 -79 17 -21 21 -58 10 -85 -6 -14 -10 -30
-8 -36 1 -5 4 -30 6 -55 1 -25 5 -65 8 -90 26 -212 40 -304 53 -360 17 -78 33
-154 39 -194 2 -17 10 -33 16 -37 9 -6 7 -10 -6 -15 -18 -7 -18 -8 0 -21 10
-7 36 -13 58 -14 l41 -1 -29 -12 c-28 -13 -28 -13 -5 -19 38 -10 54 37 23 67
-8 9 -12 21 -9 26 4 6 -3 29 -14 51 -12 22 -21 51 -21 65 0 13 -6 27 -14 30
-8 3 -12 13 -9 24 3 10 0 21 -6 24 -5 4 -8 13 -4 21 3 9 1 21 -5 28 -9 11 -40
177 -42 222 0 11 -1 35 -1 53 -1 17 -5 35 -10 38 -5 3 -9 20 -9 39 0 24 -7 39
-22 49 -20 14 -20 16 -4 16 14 0 16 3 7 14 -8 10 -8 16 2 25 8 6 17 8 20 4 4
-3 7 1 7 10 0 10 -4 17 -9 17 -14 0 1 123 17 139 26 27 44 81 32 96 -6 8 -18
11 -26 8 -8 -3 -14 1 -15 8 0 14 -21 -28 -23 -46 -2 -23 -31 -8 -36 19 -3 16
-11 31 -18 34 -11 3 -13 -9 -8 -63z m63 -147 c-3 -7 -5 -2 -5 12 0 14 2 19 5
13 2 -7 2 -19 0 -25z m103 -738 c0 -5 -7 -10 -15 -10 -8 0 -15 5 -15 10 0 6 7
10 15 10 8 0 15 -4 15 -10z m12 -52 c-6 -6 -15 -8 -19 -4 -4 4 -1 11 7 16 19
12 27 3 12 -12z"/>
<path d="M3930 2889 c0 -5 11 -9 25 -9 14 0 25 4 25 9 0 5 -11 9 -25 9 -14 0
-25 -4 -25 -9z"/>
<path d="M4000 2837 c0 -9 -4 -17 -10 -17 -5 0 -10 -4 -10 -10 0 -5 4 -10 9
-10 12 0 25 39 17 47 -3 4 -6 -1 -6 -10z"/>
<path d="M3560 2829 c0 -5 5 -7 10 -4 6 3 10 8 10 11 0 2 -4 4 -10 4 -5 0 -10
-5 -10 -11z"/>
<path d="M3792 2770 c0 -14 2 -19 5 -12 2 6 2 18 0 25 -3 6 -5 1 -5 -13z"/>
<path d="M3947 2763 c-12 -11 -8 -23 8 -23 8 0 15 7 15 15 0 16 -12 20 -23 8z"/>
<path d="M3911 2744 c0 -11 3 -14 6 -6 3 7 2 16 -1 19 -3 4 -6 -2 -5 -13z"/>
<path d="M3770 2738 c0 -18 18 -34 28 -24 3 4 -2 14 -11 23 -16 16 -17 16 -17
1z"/>
<path d="M3935 2701 c-3 -5 -1 -12 5 -16 5 -3 10 1 10 9 0 18 -6 21 -15 7z"/>
<path d="M3790 2685 c0 -8 -7 -15 -15 -15 -8 0 -15 -4 -15 -10 0 -5 5 -10 12
-10 6 0 2 -10 -9 -22 -12 -13 -23 -34 -25 -48 -2 -14 -9 -24 -16 -22 -6 1 -12
-5 -12 -13 0 -8 -4 -15 -9 -15 -5 0 -11 -10 -13 -22 -2 -13 -8 -22 -13 -21 -6
1 -10 -15 -11 -34 0 -20 -7 -41 -15 -47 -17 -14 -26 -51 -9 -41 17 10 3 -32
-21 -67 -13 -18 -16 -29 -9 -33 6 -4 13 -5 14 -4 7 8 73 155 85 189 11 29 63
143 102 221 8 17 3 29 -13 29 -4 0 -8 -7 -8 -15z"/>
<path d="M2 2650 c0 -14 2 -19 5 -12 2 6 2 18 0 25 -3 6 -5 1 -5 -13z"/>
<path d="M2665 2654 c9 -9 19 -13 23 -10 3 4 0 11 -8 16 -24 15 -33 11 -15 -6z"/>
<path d="M3395 2646 c-3 -9 -7 -22 -9 -30 -3 -9 2 -12 15 -9 28 8 33 21 15 39
-15 14 -17 14 -21 0z"/>
<path d="M3916 2641 c-4 -7 -5 -15 -2 -18 9 -9 19 4 14 18 -4 11 -6 11 -12 0z"/>
<path d="M3351 2574 c0 -11 3 -14 6 -6 3 7 2 16 -1 19 -3 4 -6 -2 -5 -13z"/>
<path d="M2740 2546 c0 -19 39 -31 53 -17 13 13 10 16 -25 25 -21 5 -28 3 -28
-8z"/>
<path d="M3386 2544 c-8 -21 -3 -26 18 -18 9 3 16 12 16 20 0 19 -26 18 -34
-2z"/>
<path d="M3878 2542 c-19 -4 -24 -17 -9 -26 5 -3 14 1 21 9 15 18 12 23 -12
17z"/>
<path d="M3651 2528 c-1 -10 -6 -18 -12 -18 -5 0 -7 -5 -3 -11 9 -15 28 16 20
34 -2 7 -5 4 -5 -5z"/>
<path d="M3355 2519 c-4 -6 -5 -12 -2 -15 2 -3 7 2 10 11 7 17 1 20 -8 4z"/>
<path d="M18 2463 c-15 -4 -18 -16 -18 -63 0 -64 6 -70 59 -62 33 5 202 -22
254 -40 34 -13 42 -43 39 -150 -3 -83 -15 -88 -197 -88 l-155 0 0 -140 c0 -77
2 -140 4 -140 3 0 26 13 53 29 40 25 191 71 232 71 6 0 20 -9 31 -20 16 -16
20 -33 20 -85 0 -100 -5 -102 -185 -103 -81 -1 -149 -3 -151 -5 -3 -2 -3 -131
-2 -286 l3 -283 48 66 c26 36 47 70 47 75 0 5 -9 11 -21 14 -20 5 -21 11 -17
121 4 148 5 148 126 149 l90 0 23 51 c13 28 50 79 82 114 56 60 59 66 55 105
-7 65 8 94 61 123 75 40 115 73 129 104 11 28 11 30 -10 31 -13 1 -27 2 -33 4
-5 1 -28 3 -50 4 -47 2 -75 16 -60 30 6 5 55 11 110 14 92 5 101 7 122 32 16
18 21 34 17 49 -7 29 21 59 46 51 14 -4 31 12 72 72 79 113 83 122 64 141 -14
14 -68 16 -443 18 -236 1 -436 0 -445 -3z"/>
<path d="M3613 2443 c-21 -8 -15 -22 7 -16 11 3 20 9 20 14 0 10 -8 10 -27 2z"/>
<path d="M3995 2440 c-3 -5 -1 -10 4 -10 6 0 11 5 11 10 0 6 -2 10 -4 10 -3 0
-8 -4 -11 -10z"/>
<path d="M3558 2375 c-21 -27 -22 -35 -8 -35 6 0 10 7 10 15 0 18 16 20 24 3
3 -7 3 -2 0 11 -5 17 -3 21 6 16 9 -5 11 -4 6 3 -10 17 -19 14 -38 -13z"/>
<path d="M5130 2344 c0 -4 17 -34 38 -68 21 -34 42 -69 45 -80 5 -13 13 -17
30 -12 12 4 45 10 74 15 32 5 60 16 76 31 22 21 32 23 118 21 108 -2 189 -24
189 -53 0 -9 -11 -28 -25 -42 -22 -22 -25 -34 -25 -94 0 -96 12 -105 133 -108
401 -9 573 -15 593 -20 l24 -6 0 185 c0 102 -4 188 -8 191 -5 3 -96 6 -203 7
-175 2 -614 17 -936 33 -68 4 -123 3 -123 0z"/>
<path d="M4616 2324 c-9 -23 -7 -46 3 -40 5 3 9 17 9 31 0 29 -3 31 -12 9z"/>
<path d="M3530 2315 c0 -8 -6 -15 -12 -18 -7 -2 -11 -7 -8 -10 3 -3 20 5 38
18 32 22 32 23 7 23 -14 0 -25 -6 -25 -13z"/>
<path d="M3555 2270 c3 -5 8 -10 11 -10 2 0 4 5 4 10 0 6 -5 10 -11 10 -5 0
-7 -4 -4 -10z"/>
<path d="M3424 2242 c4 -7 2 -20 -6 -29 -11 -14 -11 -15 2 -10 8 4 23 10 33
13 9 4 17 11 17 16 0 5 -5 6 -10 3 -6 -4 -18 -1 -27 7 -13 10 -15 10 -9 0z"/>
<path d="M3600 2208 c0 -19 2 -20 10 -8 13 19 13 30 0 30 -5 0 -10 -10 -10
-22z"/>
<path d="M4736 2208 c-9 -12 -16 -26 -16 -30 0 -4 -16 -32 -35 -62 -19 -30
-35 -61 -35 -69 0 -8 -6 -27 -14 -43 -23 -46 -39 -88 -37 -97 3 -16 -20 -47
-31 -41 -12 8 -6 44 18 99 10 22 18 47 19 55 1 8 6 33 10 55 8 41 -8 41 -18 0
-4 -18 -5 -18 -6 3 -2 41 -17 22 -29 -35 -6 -32 -22 -116 -36 -188 -14 -71
-30 -152 -36 -180 -6 -27 -13 -66 -16 -85 -3 -19 -10 -53 -16 -75 -6 -22 -12
-57 -14 -78 -4 -41 -20 -77 -38 -89 -8 -6 -7 -11 3 -17 8 -5 10 -14 5 -22 -7
-12 -9 -23 -16 -81 -1 -10 -5 -18 -8 -18 -4 0 -12 -30 -19 -67 -7 -38 -20 -77
-30 -88 -10 -11 -21 -36 -25 -55 -4 -25 -3 -31 4 -20 8 12 10 11 10 -8 0 -15
-11 -29 -35 -43 -34 -21 -50 -47 -20 -35 51 20 51 20 38 4 -7 -8 -9 -19 -5
-23 4 -5 -1 -5 -10 -2 -10 3 -20 2 -23 -3 -4 -6 1 -10 9 -10 25 0 18 -17 -9
-24 -14 -4 -25 -12 -25 -20 0 -22 12 -26 26 -8 12 15 13 12 14 -22 0 -35 -2
-37 -17 -25 -15 13 -16 11 -9 -15 4 -17 3 -32 -3 -35 -15 -10 -92 0 -85 10 3
5 0 9 -5 9 -21 0 -11 -29 11 -32 21 -3 38 -48 18 -48 -6 0 -10 7 -10 15 0 8
-4 15 -10 15 -5 0 -10 -8 -10 -18 0 -11 -14 -25 -35 -35 -20 -10 -35 -23 -33
-31 2 -8 -9 -25 -24 -39 -16 -15 -28 -33 -28 -40 0 -8 -7 -18 -16 -21 -8 -3
-12 -11 -8 -18 5 -8 0 -9 -15 -5 -22 6 -23 5 -4 -15 10 -12 12 -18 6 -14 -8 4
-13 1 -13 -8 0 -10 6 -13 17 -9 11 4 14 3 9 -5 -6 -10 -48 -32 -86 -45 -11 -4
-10 -6 4 -6 18 -1 18 -2 3 -19 -10 -10 -14 -22 -10 -27 5 -4 1 -6 -8 -2 -11 3
-20 -3 -28 -19 -6 -13 -15 -24 -21 -24 -5 0 -10 -7 -10 -16 0 -11 -6 -15 -20
-11 -11 3 -20 1 -20 -4 0 -5 -15 -9 -32 -9 -25 0 -29 -3 -18 -10 8 -5 25 -10
38 -10 12 0 22 -4 22 -10 0 -5 -7 -10 -15 -10 -8 0 -19 -8 -24 -19 -13 -23
-45 -33 -60 -18 -16 16 -13 57 4 63 8 4 12 10 9 15 -3 5 6 9 20 9 18 0 24 4
20 15 -4 8 -1 15 5 15 7 0 11 8 9 18 -2 9 4 18 12 18 8 1 24 2 35 3 12 1 16 4
9 9 -6 4 -14 20 -18 36 -6 23 -4 27 8 23 11 -4 16 -1 16 12 0 21 43 64 54 54
4 -4 5 13 3 39 -4 36 -1 48 14 59 12 9 15 17 8 25 -7 8 0 13 23 18 28 6 30 8
16 17 -24 13 -23 25 6 56 14 15 22 31 18 37 -15 23 -8 56 11 56 16 0 17 3 7
15 -10 12 -10 15 0 15 8 0 10 3 7 7 -4 3 -15 -1 -24 -9 -24 -21 -60 -31 -67
-19 -8 12 44 41 71 41 29 0 43 14 36 38 -6 26 -35 29 -77 7 -15 -8 -34 -15
-42 -15 -8 0 -11 -6 -8 -15 7 -17 -16 -21 -32 -5 -5 5 -15 6 -23 1 -11 -7 -11
-14 3 -42 16 -32 16 -34 -5 -50 -12 -9 -19 -21 -15 -28 4 -6 2 -11 -3 -11 -6
0 -11 -6 -11 -13 0 -16 -38 -40 -50 -32 -16 10 -11 23 10 30 25 8 26 25 3 25
-25 -1 -53 -24 -53 -44 0 -18 -35 -22 -45 -5 -4 6 -13 8 -21 5 -8 -3 -11 0 -7
10 3 8 -1 14 -10 14 -9 0 -23 3 -31 6 -12 4 -15 2 -11 -9 5 -11 -8 -15 -65
-19 -39 -3 -77 -11 -83 -18 -9 -9 1 -10 46 -5 40 5 57 4 57 -4 0 -7 -9 -9 -25
-5 -18 5 -25 2 -25 -9 0 -8 6 -17 13 -20 6 -2 -7 -4 -29 -3 -41 2 -68 19 -70
44 -2 28 -5 32 -21 32 -17 -1 -17 -1 0 -14 24 -19 22 -21 -24 -35 -41 -12 -41
-13 -19 -24 34 -17 37 -37 6 -37 -14 0 -26 5 -26 10 0 13 -37 13 -45 -1 -4 -6
0 -9 8 -7 15 3 17 0 17 -21 0 -15 -53 -36 -82 -33 -33 4 -38 22 -7 22 18 0 20
4 15 25 -4 14 -2 25 3 25 11 0 23 29 16 40 -6 9 -126 -46 -136 -62 -4 -6 -3
-25 1 -44 7 -30 5 -34 -12 -34 -26 0 -78 -37 -78 -56 0 -8 -6 -14 -12 -14 -10
0 -10 -2 0 -9 11 -7 10 -10 -3 -15 -9 -3 -26 -6 -38 -6 -20 -1 -21 -2 -5 -14
13 -10 15 -15 5 -25 -9 -9 -9 -16 1 -31 6 -10 9 -27 5 -36 -5 -14 -15 -15 -65
-10 -32 4 -58 5 -58 2 0 -3 26 -13 57 -22 141 -41 342 -177 330 -224 -5 -19 0
-20 130 -20 120 0 134 2 129 16 -5 13 -2 15 14 11 22 -6 26 3 9 20 -7 7 -3 12
15 15 26 5 36 -6 14 -15 -9 -4 -9 -6 -1 -6 6 -1 32 8 58 19 52 22 95 26 112 9
8 -8 13 -8 18 0 4 8 11 6 21 -4 15 -15 39 -11 29 5 -3 4 12 11 32 15 28 5 38
3 45 -9 5 -9 14 -14 19 -11 5 4 6 11 3 17 -5 7 -1 9 9 5 9 -3 19 -2 22 3 12
19 42 9 54 -17 l13 -28 15 23 c9 12 22 22 29 22 8 0 14 3 14 8 0 4 20 7 45 7
29 0 45 -4 45 -12 0 -7 5 -13 11 -13 6 0 9 6 6 13 -2 6 3 17 12 23 12 9 18 8
27 -4 10 -14 13 -13 23 6 8 15 21 22 40 22 16 0 31 7 34 15 4 8 18 14 34 13
15 -1 35 0 43 3 9 2 14 -2 12 -10 -2 -9 3 -11 13 -7 9 3 19 6 21 6 3 0 2 5 -1
10 -3 6 5 14 18 19 14 6 28 15 32 20 3 6 19 11 34 11 30 0 45 25 31 51 -6 10
-1 15 21 16 17 1 27 -2 24 -7 -4 -6 3 -10 14 -10 12 0 21 7 21 15 0 18 21 20
38 3 9 -9 15 -9 20 -3 18 27 92 60 77 35 -3 -5 -1 -10 6 -10 22 0 94 24 102
35 5 6 7 3 3 -8 -3 -11 0 -17 9 -17 8 0 15 -4 15 -10 0 -5 5 -10 11 -10 7 0 9
10 7 25 -7 32 14 49 48 41 21 -6 25 -12 22 -31 -4 -16 -1 -22 9 -18 8 3 13 21
13 44 0 32 4 39 19 39 11 0 21 -4 23 -9 5 -16 52 -20 71 -6 9 6 14 15 11 18
-4 3 9 4 29 0 30 -4 36 -2 42 16 4 12 16 26 28 30 34 12 115 13 122 1 3 -5 31
-10 61 -10 30 0 65 -6 77 -14 23 -15 81 -11 71 5 -3 5 2 9 11 9 10 0 15 -6 12
-13 -4 -11 5 -12 39 -7 25 4 47 8 49 8 3 1 8 2 11 2 4 0 1 6 -5 14 -10 11 -8
17 6 25 17 10 17 12 1 21 -11 7 -18 23 -18 41 0 27 -3 30 -22 23 -13 -3 -20
-3 -16 1 11 12 -11 35 -33 35 -11 0 -24 10 -30 23 -12 26 -48 52 -57 41 -4 -4
-1 -9 6 -11 6 -3 10 -9 7 -14 -4 -5 -12 -3 -20 4 -9 9 -10 16 -2 25 8 10 7 16
-4 23 -20 12 -23 12 -38 -12 -11 -18 -11 -23 1 -31 9 -7 7 -8 -9 -5 -12 3 -23
1 -25 -3 -2 -5 -19 -5 -38 -1 -31 6 -32 8 -12 13 13 4 22 14 22 25 0 11 -3 14
-8 7 -12 -18 -42 -25 -42 -9 0 9 -16 16 -45 21 -46 6 -59 26 -27 40 20 8 20 8
51 -1 16 -5 21 -4 17 4 -4 6 6 18 24 29 20 11 29 23 26 34 -3 15 1 17 22 11
15 -3 33 -15 40 -25 11 -15 17 -16 28 -7 20 17 17 29 -7 29 -17 0 -19 3 -11
13 6 7 10 30 8 50 -4 34 -2 36 16 26 15 -8 19 -8 13 1 -4 6 0 17 9 23 9 7 19
25 22 41 7 40 11 46 48 63 101 47 113 66 20 33 -32 -11 -67 -20 -79 -21 -18 0
-18 -1 -2 -8 17 -6 17 -9 -5 -36 -36 -48 -68 -75 -198 -170 -68 -49 -133 -99
-144 -110 -11 -11 -50 -41 -86 -67 -36 -26 -77 -56 -92 -68 -16 -12 -29 -16
-33 -10 -3 5 -15 10 -26 10 -24 0 -24 9 -1 26 16 12 15 13 -8 14 -36 1 -60 21
-60 50 0 6 -7 10 -15 10 -12 0 -13 5 -7 17 5 10 9 47 10 82 l0 63 -19 -28
c-17 -27 -19 -27 -19 -7 0 12 -4 25 -10 28 -5 3 -10 2 -10 -3 0 -11 -49 -7
-61 5 -5 5 2 20 16 35 l24 26 -35 -3 c-24 -3 -34 1 -34 10 0 9 6 12 15 9 10
-4 18 3 25 21 6 15 9 29 8 30 -2 1 -18 7 -35 14 -18 8 -30 17 -28 22 3 4 -2
12 -11 17 -12 7 -13 11 -5 17 9 5 8 12 -5 26 -13 15 -14 22 -5 33 14 17 41 10
41 -10 0 -12 4 -13 23 -3 22 12 22 13 -10 21 -42 11 -47 21 -23 43 20 18 28
51 10 40 -6 -4 -6 3 0 21 6 15 9 29 6 31 -7 8 -60 -24 -91 -55 l-30 -30 -11
36 c-9 33 -8 40 13 61 16 16 21 31 17 44 -4 11 -2 17 4 14 5 -4 9 10 9 32 0
25 -4 38 -11 35 -6 -2 -17 5 -24 16 -7 11 -8 20 -3 20 5 0 12 -6 14 -12 4 -10
8 -9 16 2 15 21 13 30 -5 23 -12 -4 -14 0 -8 21 3 14 2 26 -3 26 -11 0 -9 64
2 123 4 20 11 37 15 37 4 0 10 7 13 14 4 11 1 13 -10 9 -13 -5 -15 -2 -10 11
4 10 7 22 7 27 0 6 4 7 10 4 6 -3 7 1 4 9 -3 9 -1 16 6 16 6 0 9 4 5 9 -7 12
15 61 28 61 5 0 7 6 4 13 -3 7 1 21 9 32 10 14 14 15 15 4 0 -8 4 -6 8 6 11
26 3 45 -15 38 -21 -8 -17 15 5 27 26 13 17 50 -10 43 -11 -3 -18 -11 -15 -18
2 -7 -3 -20 -13 -29 -10 -9 -18 -32 -19 -51 -1 -35 -55 -163 -87 -207 l-16
-23 7 30 c4 17 13 39 19 50 18 29 27 85 14 85 -16 0 -1 54 38 140 53 113 67
144 67 150 1 3 16 38 35 78 33 73 37 103 7 60z m-176 -398 c0 -11 -4 -20 -9
-20 -5 0 -7 9 -4 20 3 11 7 20 9 20 2 0 4 -9 4 -20z m-5 -330 c3 -5 1 -10 -4
-10 -6 0 -11 5 -11 10 0 6 2 10 4 10 3 0 8 -4 11 -10z m-218 -462 c-3 -8 -6
-5 -6 6 -1 11 2 17 5 13 3 -3 4 -12 1 -19z m1123 -188 c0 -4 -6 -10 -12 -13
-8 -3 -13 4 -13 18 0 18 3 21 13 13 6 -6 12 -14 12 -18z m-835 -148 c-16 -35
-16 -36 5 -52 19 -15 20 -18 6 -23 -23 -9 -20 -26 4 -20 10 3 22 14 25 24 8
24 25 25 26 2 0 -15 2 -15 7 -3 10 21 38 24 46 4 3 -9 12 -14 20 -11 17 7 70
-44 107 -102 32 -49 27 -65 -19 -74 -29 -5 -82 -23 -197 -67 -53 -20 -84 -26
-127 -24 -32 1 -58 -2 -58 -7 0 -5 -12 -9 -27 -9 -24 1 -25 2 -10 11 12 7 15
17 11 35 -5 21 -3 24 19 24 46 0 94 82 104 179 3 31 7 65 8 76 1 11 4 34 5 50
l2 30 8 -30 7 -30 12 30 c8 18 11 54 8 90 l-5 60 15 -64 c14 -58 14 -67 -2
-99z m805 154 c0 -11 -19 -15 -25 -6 -3 5 1 10 9 10 9 0 16 -2 16 -4z m-620
-62 c0 -8 -5 -12 -10 -9 -6 4 -8 11 -5 16 9 14 15 11 15 -7z m537 -30 c-7 -7
-37 7 -37 17 0 6 9 5 21 -1 11 -7 19 -14 16 -16z m-1434 -31 c-7 -2 -19 -2
-25 0 -7 3 -2 5 12 5 14 0 19 -2 13 -5z m77 -13 c0 -5 -4 -10 -10 -10 -5 0
-10 5 -10 10 0 6 5 10 10 10 6 0 10 -4 10 -10z m734 -16 c4 -11 1 -14 -11 -12
-9 2 -18 9 -21 16 -6 18 25 15 32 -4z m-454 -20 c0 -8 -4 -12 -10 -9 -5 3 -10
10 -10 16 0 5 5 9 10 9 6 0 10 -7 10 -16z m1032 -22 c-12 -2 -29 3 -37 11 -22
22 -7 27 28 9 30 -16 30 -17 9 -20z m-1657 -10 c0 -6 -3 -12 -7 -12 -5 0 -8 3
-7 6 0 4 -5 11 -13 16 -9 7 -8 8 7 6 11 -2 20 -9 20 -16z m272 12 c-3 -3 -12
-4 -19 -1 -8 3 -5 6 6 6 11 1 17 -2 13 -5z m353 -14 c0 -5 -4 -10 -10 -10 -5
0 -10 5 -10 10 0 6 5 10 10 10 6 0 10 -4 10 -10z m-510 -10 c0 -5 -4 -10 -9
-10 -6 0 -13 5 -16 10 -3 6 1 10 9 10 9 0 16 -4 16 -10z m-140 -21 c0 -6 9 -9
20 -6 11 3 20 1 20 -4 0 -12 -67 -12 -74 0 -4 5 0 12 6 14 21 9 28 8 28 -4z
m621 -56 c-12 -20 -14 -14 -5 12 4 9 9 14 11 11 3 -2 0 -13 -6 -23z m-651 7
c0 -5 -9 -10 -21 -10 -11 0 -17 5 -14 10 3 6 13 10 21 10 8 0 14 -4 14 -10z
m2064 -101 c-3 -5 -10 -7 -15 -3 -5 3 -7 10 -3 15 3 5 10 7 15 3 5 -3 7 -10 3
-15z m-1814 -95 c0 -8 -5 -12 -10 -9 -6 4 -8 11 -5 16 9 14 15 11 15 -7z m35
-124 c3 -5 -1 -10 -9 -10 -9 0 -16 5 -16 10 0 6 4 10 9 10 6 0 13 -4 16 -10z
m560 -30 c-3 -5 -15 -10 -26 -10 -11 0 -17 5 -14 10 3 6 15 10 26 10 11 0 17
-4 14 -10z"/>
<path d="M1528 2203 c7 -3 16 -2 19 1 4 3 -2 6 -13 5 -11 0 -14 -3 -6 -6z"/>
<path d="M3569 2132 c-12 -29 -26 -49 -32 -45 -5 3 -7 2 -4 -3 5 -9 -20 -65
-61 -134 -12 -19 -31 -54 -43 -77 -12 -23 -34 -55 -48 -71 -15 -16 -25 -34
-24 -39 7 -19 -71 -130 -87 -125 -13 3 -13 2 0 -7 9 -7 11 -14 5 -18 -5 -5
-10 -15 -10 -23 0 -8 -11 -20 -25 -27 -18 -9 -24 -19 -22 -37 2 -17 -5 -34
-22 -51 -14 -14 -27 -35 -28 -48 -2 -12 -13 -32 -26 -45 -12 -12 -22 -33 -22
-47 0 -14 -5 -25 -11 -25 -5 0 -7 5 -4 10 3 6 -4 10 -16 10 -16 0 -19 -3 -11
-13 7 -8 8 -24 3 -43 -6 -24 -12 -28 -34 -26 -30 4 -36 -12 -11 -26 22 -12 10
-67 -19 -87 -21 -15 -21 -15 8 -16 29 -2 29 -2 -5 -8 -32 -6 -35 -8 -32 -39 3
-31 -10 -43 -23 -22 -3 6 -11 10 -17 10 -6 0 -8 -3 -5 -7 4 -3 -2 -12 -13 -20
-19 -13 -18 -40 3 -54 12 -9 -32 -69 -58 -79 -18 -8 -18 -9 -2 -9 10 -1 15 -5
12 -11 -3 -5 -1 -10 6 -10 8 0 8 -4 -1 -15 -9 -10 -9 -15 -1 -15 6 0 11 -7 11
-15 0 -8 -4 -15 -10 -15 -5 0 -10 6 -10 14 0 8 -4 17 -8 20 -11 6 -54 -73 -47
-84 3 -5 0 -20 -6 -33 -8 -17 -17 -23 -28 -19 -14 5 -14 4 -2 -11 7 -9 9 -17
3 -17 -5 0 -12 -13 -15 -29 -3 -16 -18 -41 -32 -57 -14 -15 -28 -38 -31 -51
-4 -14 -14 -23 -26 -23 -16 0 -19 -5 -15 -21 5 -20 3 -21 -41 -15 -28 3 -41 2
-33 -3 9 -6 4 -10 -18 -13 -20 -3 -32 0 -36 10 -8 20 -7 22 12 22 13 0 14 3 5
12 -14 14 -16 42 -2 33 6 -3 10 -1 10 4 0 6 -4 11 -10 11 -5 0 -10 9 -10 19 0
19 14 22 37 8 13 -8 27 8 18 22 -3 5 0 13 6 17 7 4 9 21 5 45 -4 24 -2 40 5
45 9 5 7 11 -6 20 -17 12 -17 14 -1 20 9 4 20 4 23 1 9 -10 43 12 43 27 0 16
-27 29 -41 20 -5 -3 -7 -10 -4 -15 4 -5 -3 -9 -15 -9 -11 0 -29 -6 -40 -12
-15 -10 -22 -10 -32 0 -16 16 -29 15 -22 -2 5 -14 -21 -28 -58 -31 -24 -2 -36
-15 -15 -15 10 0 17 -8 17 -20 0 -11 -4 -20 -10 -20 -5 0 -7 7 -3 16 4 11 1
15 -13 13 -10 -2 -30 1 -43 5 -18 6 -21 10 -10 17 11 7 9 10 -8 15 -13 4 -23
10 -23 14 0 18 -57 17 -98 -1 -37 -17 -41 -23 -36 -44 4 -18 2 -25 -8 -25 -8
0 -30 -8 -48 -17 -24 -11 -35 -13 -38 -5 -2 8 -9 8 -25 0 -50 -26 -58 -28 -67
-23 -6 4 -10 13 -10 21 0 8 -7 14 -15 14 -8 0 -15 5 -15 10 0 6 -7 10 -15 10
-8 0 -15 -4 -15 -10 0 -5 6 -10 14 -10 21 0 40 -26 25 -36 -6 -4 -16 0 -21 10
-5 9 -19 16 -30 16 -16 0 -19 3 -11 11 18 18 -5 56 -36 62 -14 3 -29 0 -33 -6
-6 -9 -12 -9 -27 0 -17 11 -23 10 -41 -9 -11 -12 -18 -23 -16 -25 2 -2 23 -4
45 -5 39 0 41 -2 26 -17 -19 -22 -19 -31 -1 -31 9 0 12 -7 9 -19 -3 -14 2 -20
24 -26 26 -7 26 -8 8 -15 -30 -13 -30 -13 -45 25 -11 27 -19 35 -39 35 -21 0
-23 -2 -11 -10 13 -8 13 -10 -2 -10 -9 0 -20 5 -23 10 -3 6 -12 10 -18 10 -8
0 -8 -3 1 -9 11 -7 11 -9 -2 -14 -9 -4 -16 -3 -16 2 0 4 -12 13 -26 20 -25 11
-25 13 -10 29 12 14 13 21 4 30 -25 25 -36 14 -27 -25 9 -44 8 -47 -22 -38
-22 7 -22 8 -4 21 15 12 17 18 7 39 -7 15 -8 25 -2 25 14 0 12 27 -2 33 -10 4
-10 6 0 6 23 2 12 21 -12 21 -14 0 -28 5 -31 11 -4 6 4 9 22 7 20 -2 28 1 28
12 0 8 7 21 15 27 12 10 7 12 -27 8 -34 -4 -43 -2 -43 10 0 9 7 18 15 21 19 8
14 36 -9 59 -15 16 -21 17 -38 6 -15 -9 -23 -10 -31 -2 -8 8 -5 11 9 11 10 0
29 11 41 23 22 23 22 24 2 40 -26 23 -50 22 -42 0 6 -17 5 -16 -15 0 -11 11
-25 16 -30 13 -6 -3 -18 -3 -29 1 -16 6 -15 8 7 13 14 4 31 2 38 -3 13 -10 31
5 32 26 0 10 -38 9 -44 -2 -8 -12 -86 -12 -86 0 0 5 5 9 11 9 5 0 8 4 5 9 -3
5 -15 7 -26 4 -11 -3 -20 0 -20 6 0 6 5 11 11 11 6 0 18 7 26 16 11 10 24 13
42 9 42 -11 43 -11 48 1 2 6 -9 16 -24 23 -20 9 -23 15 -14 20 7 5 21 7 30 4
10 -2 23 3 31 11 11 14 10 16 -6 15 -11 -1 -45 -1 -76 -1 -46 2 -56 5 -52 17
10 24 -5 36 -27 24 -16 -8 -18 -13 -8 -25 9 -11 8 -14 -4 -14 -9 0 -21 8 -26
18 -9 15 -10 14 -11 -6 0 -20 -3 -21 -20 -12 -22 12 -29 62 -7 59 6 -2 26 1
44 5 30 7 31 8 16 26 -13 15 -20 16 -34 7 -18 -11 -18 -12 -1 -19 13 -5 11 -7
-9 -7 -24 -1 -27 4 -31 36 -3 21 -1 58 4 83 4 25 10 90 12 145 2 55 7 137 11
182 6 58 4 94 -6 127 -13 45 -15 46 -44 40 -16 -3 -31 -7 -32 -8 -2 -1 6 -25
15 -52 10 -27 21 -63 25 -79 3 -17 8 -37 12 -46 5 -12 -2 -20 -22 -28 l-28
-11 28 5 c24 5 28 3 25 -12 -2 -10 -10 -17 -16 -15 -7 1 -12 -2 -12 -8 0 -5
-9 -10 -20 -10 -26 0 -25 -5 7 -67 25 -49 26 -53 10 -71 -15 -16 -15 -21 -2
-38 18 -24 19 -44 2 -44 -7 0 -22 -7 -33 -16 -18 -15 -18 -15 9 -11 15 2 27 0
27 -5 0 -5 5 -6 12 -2 8 5 9 2 5 -10 -4 -10 -7 -25 -7 -33 0 -9 -3 -13 -7 -9
-10 10 -31 -34 -25 -56 2 -10 12 -18 21 -19 35 -1 -40 -44 -77 -44 -20 0 -39
-4 -41 -10 -6 -15 42 -36 53 -25 15 15 36 12 36 -5 0 -8 -7 -15 -15 -15 -8 0
-15 -7 -15 -15 0 -8 7 -15 15 -15 8 0 15 -4 15 -10 0 -5 7 -10 15 -10 8 0 15
-4 15 -10 0 -5 -13 -10 -29 -10 -17 0 -33 -5 -36 -10 -5 -8 -11 -7 -21 1 -16
13 -16 12 -18 -32 -1 -23 4 -33 19 -39 25 -9 53 -40 37 -40 -6 0 -14 5 -17 10
-11 17 -54 11 -64 -9 -14 -25 -42 -35 -53 -19 -6 10 -10 10 -17 -1 -8 -12 -14
-13 -36 -3 -14 7 -35 12 -46 12 -11 0 -24 11 -31 25 -6 14 -15 25 -20 25 -5 0
-6 -4 -3 -10 9 -14 -8 -13 -23 2 -6 6 -15 8 -19 4 -4 -4 0 -12 10 -17 10 -6
36 -28 58 -50 22 -21 44 -39 49 -39 5 0 25 -14 45 -31 27 -24 33 -35 24 -45
-15 -19 -50 -3 -99 46 -51 51 -74 55 -49 8 9 -18 8 -19 -10 -13 -25 8 -27 -2
-4 -27 24 -26 -2 -22 -28 4 -11 13 -29 41 -40 63 -22 46 -74 105 -92 105 -7
-1 -3 -8 9 -18 11 -10 19 -23 16 -30 -2 -6 4 -20 14 -29 65 -65 -143 29 -321
144 -55 36 -102 69 -105 73 -9 13 -52 32 -58 25 -4 -3 -1 -10 7 -14 7 -5 18
-19 24 -31 7 -13 23 -27 37 -30 32 -9 99 -50 82 -50 -7 0 -10 -4 -7 -10 3 -5
14 -10 24 -10 10 0 31 -11 47 -25 53 -46 59 -51 86 -68 15 -9 35 -14 45 -10
13 4 11 0 -7 -17 l-25 -22 24 7 c16 5 21 4 17 -4 -4 -6 -15 -11 -24 -11 -9 0
-27 -16 -40 -36 -19 -29 -26 -33 -38 -24 -11 10 -14 9 -14 -6 0 -14 -3 -15
-12 -6 -8 8 -8 15 2 27 11 13 9 15 -10 15 -13 0 -32 -7 -42 -17 -10 -9 -18
-11 -18 -5 0 15 -39 26 -53 14 -19 -15 -94 -25 -101 -13 -4 6 -13 8 -21 4 -24
-9 -67 6 -59 20 4 7 -2 4 -14 -7 -15 -13 -29 -16 -47 -12 -18 5 -25 2 -25 -8
0 -8 5 -16 11 -18 6 -2 -13 -5 -42 -6 -29 -1 -58 -7 -65 -13 -7 -6 -17 -8 -23
-5 -22 14 -41 -7 -41 -45 0 -44 -7 -43 110 -29 102 12 210 4 210 -16 0 -8 5
-14 10 -14 6 0 10 -7 10 -16 0 -8 5 -12 11 -9 16 11 59 13 59 4 0 -4 16 -11
35 -15 19 -3 35 -10 35 -15 0 -5 9 -9 21 -9 14 0 19 -5 16 -14 -4 -10 0 -12
15 -8 16 4 20 1 16 -9 -4 -10 5 -19 26 -28 48 -19 61 -28 59 -40 -2 -6 -4 -17
-5 -23 -2 -8 7 -12 25 -10 28 4 35 -6 16 -25 -9 -9 -7 -10 10 -6 11 3 28 0 36
-7 12 -10 18 -10 30 0 19 16 34 5 17 -12 -19 -19 -14 -28 13 -28 14 0 25 -4
25 -9 0 -6 20 -13 45 -17 25 -3 45 -10 45 -15 0 -5 9 -9 20 -9 11 0 23 -7 27
-16 3 -8 12 -13 19 -10 8 3 14 -1 14 -9 0 -17 16 -20 25 -5 4 7 13 7 26 0 10
-6 19 -7 19 -3 0 4 7 0 15 -11 8 -10 21 -16 29 -13 8 3 16 -2 19 -14 3 -10 11
-19 17 -19 8 0 10 9 6 25 -6 24 -5 25 14 13 11 -7 20 -18 20 -25 0 -7 6 -10
14 -7 8 3 17 1 21 -5 3 -6 17 -8 32 -5 16 4 24 3 20 -3 -4 -6 3 -8 18 -5 18 3
25 0 25 -12 0 -18 30 -22 46 -6 8 8 26 8 60 0 75 -16 154 -42 154 -50 0 -4 57
-6 126 -4 148 4 190 15 295 80 41 26 128 73 193 106 112 56 127 61 235 75 64
8 136 14 161 14 95 -2 190 -25 230 -57 8 -6 25 -15 37 -18 18 -6 22 -4 17 8
-4 11 0 16 11 16 25 0 46 31 33 47 -8 10 -4 13 17 13 24 0 26 2 14 16 -10 13
-10 17 2 25 8 5 19 9 25 9 6 0 17 12 24 26 12 21 12 27 0 34 -11 7 -7 10 14
16 18 4 25 11 22 20 -3 8 3 30 14 49 25 44 25 65 3 65 -11 0 -14 3 -7 8 6 4
13 15 17 25 3 9 14 17 23 17 10 0 14 5 10 15 -3 9 1 18 9 21 8 4 15 14 15 24
0 21 24 43 35 32 4 -4 5 6 1 22 -6 26 -5 28 8 17 14 -12 16 -10 16 15 0 15 8
37 19 48 10 12 28 46 39 76 11 30 31 86 46 124 14 39 23 72 21 75 -3 2 1 11 9
20 8 9 20 36 27 61 15 54 14 51 22 70 23 61 64 180 112 323 31 92 62 185 69
205 34 90 87 264 82 270 -3 3 -15 -18 -27 -46z m-2125 -948 c24 -9 19 -24 -8
-24 -13 0 -26 -6 -29 -12 -3 -9 -12 -6 -28 11 l-24 23 28 -4 c15 -3 30 -1 33
3 6 11 8 11 28 3z m-68 -71 c-1 -8 -5 -13 -9 -13 -4 0 -11 0 -17 0 -5 0 -10 6
-10 13 0 7 8 13 19 13 10 0 18 -6 17 -13z m-46 -13 c0 -5 -4 -10 -10 -10 -5 0
-10 5 -10 10 0 6 5 10 10 10 6 0 10 -4 10 -10z m1797 -16 c-3 -3 -12 -4 -19
-1 -8 3 -5 6 6 6 11 1 17 -2 13 -5z m-1727 -28 c0 -3 -4 -8 -10 -11 -5 -3 -10
-1 -10 4 0 6 5 11 10 11 6 0 10 -2 10 -4z m1800 -22 c0 -8 -5 -12 -10 -9 -6 4
-8 11 -5 16 9 14 15 11 15 -7z m-1780 -14 c0 -13 -11 -13 -30 0 -12 8 -11 10
8 10 12 0 22 -4 22 -10z m1544 1 c4 -5 3 -16 0 -25 -6 -15 -8 -15 -20 1 -7 10
-14 21 -14 26 0 10 28 9 34 -2z m-1438 -16 c14 -13 11 -15 -23 -15 -36 1 -37
2 -19 15 24 18 24 18 42 0z m1641 -41 c-3 -3 -12 -4 -19 -1 -8 3 -5 6 6 6 11
1 17 -2 13 -5z m-1667 -28 c0 -8 6 -16 13 -19 6 -2 9 -7 6 -11 -4 -4 -14 0
-22 9 -9 8 -25 15 -36 15 -12 0 -21 5 -21 10 0 6 14 10 30 10 19 0 30 -5 30
-14z m-350 -146 c0 -5 -4 -10 -10 -10 -5 0 -10 5 -10 10 0 6 5 10 10 10 6 0
10 -4 10 -10z m1710 -20 c0 -5 -5 -10 -11 -10 -5 0 -7 5 -4 10 3 6 8 10 11 10
2 0 4 -4 4 -10z m-540 -30 c0 -17 5 -19 28 -14 15 3 23 2 17 -3 -5 -4 -10 -17
-10 -28 0 -11 -7 -20 -15 -20 -8 0 -14 5 -13 11 1 7 -14 10 -42 9 -33 -1 -42
1 -35 10 5 7 7 15 3 19 -4 4 0 4 9 1 11 -4 21 1 30 14 16 27 28 27 28 1z m223
-17 c-7 -2 -19 -2 -25 0 -7 3 -2 5 12 5 14 0 19 -2 13 -5z m-49 -18 c-4 -8 -8
-15 -10 -15 -2 0 -4 7 -4 15 0 8 4 15 10 15 5 0 7 -7 4 -15z m-225 -61 c1 -1
0 -8 -4 -14 -5 -9 -10 -9 -18 -1 -6 6 -22 11 -35 11 -13 0 -20 4 -17 10 5 8
62 4 74 -6z m-313 -8 c10 -8 16 -17 12 -21 -7 -7 -48 16 -48 27 0 12 14 9 36
-6z m374 5 c0 -11 -26 -22 -34 -14 -12 12 -5 23 14 23 11 0 20 -4 20 -9z
m-207 -33 c3 -10 10 -8 25 5 15 14 29 17 56 12 20 -4 36 -13 36 -20 0 -8 8
-11 18 -8 12 3 22 -4 30 -21 10 -22 9 -26 -3 -26 -8 0 -15 4 -15 10 0 20 -41
33 -65 20 -27 -15 -103 3 -112 26 -4 12 -8 13 -13 3 -5 -7 -15 -9 -26 -5 -17
7 -17 9 6 21 26 14 54 6 63 -17z m-283 -51 c-8 -9 -10 -8 -5 6 4 10 2 17 -5
17 -6 0 -8 5 -4 11 5 8 10 6 16 -6 7 -11 6 -21 -2 -28z m177 27 c-3 -3 -12 -4
-19 -1 -8 3 -5 6 6 6 11 1 17 -2 13 -5z m-241 -27 c11 -11 -19 -8 -36 3 -12 8
-10 9 7 7 12 -2 26 -6 29 -10z m1184 -27 c0 -5 -2 -10 -4 -10 -3 0 -8 5 -11
10 -3 6 -1 10 4 10 6 0 11 -4 11 -10z m-2280 -30 c0 -5 -7 -7 -15 -4 -8 4 -15
8 -15 10 0 2 7 4 15 4 8 0 15 -4 15 -10z m692 -162 c2 -27 -1 -48 -7 -48 -13
-1 -24 67 -23 145 l0 60 13 -55 c7 -30 15 -76 17 -102z m1495 66 c-3 -3 -12
-4 -19 -1 -8 3 -5 6 6 6 11 1 17 -2 13 -5z"/>
<path d="M3278 2153 c7 -3 16 -2 19 1 4 3 -2 6 -13 5 -11 0 -14 -3 -6 -6z"/>
<path d="M1350 2125 c0 -8 5 -15 10 -15 6 0 10 7 10 15 0 8 -4 15 -10 15 -5 0
-10 -7 -10 -15z"/>
<path d="M2865 2126 c-19 -13 -18 -15 15 -20 61 -9 160 -13 160 -5 0 4 10 9
23 11 12 3 -9 4 -46 3 -38 0 -71 3 -73 7 -3 5 -15 6 -26 2 -11 -3 -24 -1 -27
5 -5 8 -13 7 -26 -3z"/>
<path d="M3135 2130 c-3 -5 3 -10 14 -10 12 0 21 5 21 10 0 6 -6 10 -14 10 -8
0 -18 -4 -21 -10z"/>
<path d="M3228 2133 c7 -3 16 -2 19 1 4 3 -2 6 -13 5 -11 0 -14 -3 -6 -6z"/>
<path d="M1310 2110 c0 -5 5 -10 11 -10 6 0 8 -8 5 -17 -2 -10 1 -63 8 -118
l12 -100 12 66 c18 101 16 145 -10 169 -24 22 -38 26 -38 10z"/>
<path d="M3117 2109 c7 -7 15 -10 18 -7 3 3 -2 9 -12 12 -14 6 -15 5 -6 -5z"/>
<path d="M3258 2113 c7 -3 16 -2 19 1 4 3 -2 6 -13 5 -11 0 -14 -3 -6 -6z"/>
<path d="M3165 2100 c3 -5 15 -10 26 -10 11 0 17 5 14 10 -3 6 -15 10 -26 10
-11 0 -17 -4 -14 -10z"/>
<path d="M3456 2093 c-6 -14 -5 -15 5 -6 7 7 10 15 7 18 -3 3 -9 -2 -12 -12z"/>
<path d="M3070 2095 c0 -2 9 -9 20 -15 16 -9 18 -8 14 5 -5 13 -34 22 -34 10z"/>
<path d="M2963 2083 c9 -2 23 -2 30 0 6 3 -1 5 -18 5 -16 0 -22 -2 -12 -5z"/>
<path d="M3128 2083 c7 -3 16 -2 19 1 4 3 -2 6 -13 5 -11 0 -14 -3 -6 -6z"/>
<path d="M3250 2080 c-12 -8 -11 -10 8 -10 12 0 22 5 22 10 0 13 -11 13 -30 0z"/>
<path d="M3410 2080 c-9 -6 -10 -10 -3 -10 6 0 15 5 18 10 8 12 4 12 -15 0z"/>
<path d="M2720 2020 c0 -9 36 -20 68 -20 12 0 22 -4 22 -10 0 -5 15 -10 33
-10 l32 1 -40 15 c-53 20 -115 33 -115 24z"/>
<path d="M4420 2000 c0 -5 4 -10 9 -10 6 0 13 5 16 10 3 6 -1 10 -9 10 -9 0
-16 -4 -16 -10z"/>
<path d="M1250 1990 c0 -5 5 -10 10 -10 6 0 10 5 10 10 0 6 -4 10 -10 10 -5 0
-10 -4 -10 -10z"/>
<path d="M3025 1980 c-3 -5 -1 -10 4 -10 6 0 11 5 11 10 0 6 -2 10 -4 10 -3 0
-8 -4 -11 -10z"/>
<path d="M3183 1979 c-9 -9 -71 -15 -98 -9 -25 6 -28 -1 -7 -16 16 -11 34 -14
55 -10 33 7 74 32 66 41 -3 2 -10 0 -16 -6z"/>
<path d="M2926 1953 c6 -34 13 -41 22 -26 5 8 13 9 22 3 8 -6 22 -10 30 -10
13 0 13 1 0 11 -11 8 -12 12 -2 16 24 10 11 25 -18 21 -16 -3 -30 -1 -30 4 0
4 -6 8 -14 8 -10 0 -13 -8 -10 -27z"/>
<path d="M2857 1959 c-9 -6 -15 -14 -12 -20 4 -5 13 -2 22 6 19 20 14 27 -10
14z"/>
<path d="M2890 1960 c0 -5 5 -10 11 -10 5 0 7 5 4 10 -3 6 -8 10 -11 10 -2 0
-4 -4 -4 -10z"/>
<path d="M1270 1945 c7 -9 15 -13 17 -11 7 7 -7 26 -19 26 -6 0 -6 -6 2 -15z"/>
<path d="M3025 1940 c4 -6 11 -8 16 -5 14 9 11 15 -7 15 -8 0 -12 -5 -9 -10z"/>
<path d="M5393 1943 c-27 -5 -26 -5 -12 -36 10 -23 13 -23 261 -36 138 -7 264
-17 282 -22 103 -31 179 -49 206 -49 36 0 73 -33 65 -59 -8 -27 34 -41 125
-41 l80 0 0 100 0 100 -27 1 c-50 1 -357 18 -398 22 -105 11 -548 26 -582 20z"/>
<path d="M4425 1920 c-8 -13 5 -13 25 0 13 8 13 10 -2 10 -9 0 -20 -4 -23 -10z"/>
<path d="M4425 1841 c3 -2 -2 -12 -11 -22 -15 -16 -14 -17 3 -13 10 3 24 14
31 24 10 16 8 18 -8 17 -10 -1 -17 -3 -15 -6z"/>
<path d="M2498 1833 c6 -2 12 -9 12 -15 0 -6 -7 -8 -15 -4 -8 3 -15 1 -15 -4
0 -6 6 -10 13 -10 12 0 37 -44 37 -67 0 -19 18 -16 23 5 4 13 5 11 6 -5 1 -17
-5 -23 -19 -23 -32 0 -23 -17 13 -25 27 -6 29 -8 12 -14 -15 -6 -10 -9 23 -14
23 -4 42 -13 42 -19 0 -8 3 -9 10 -2 6 6 8 19 4 28 -5 12 -9 14 -14 6 -5 -8
-16 -6 -38 7 -40 23 -40 33 -2 33 33 0 37 13 18 55 -10 23 -24 30 -55 26 -7
-1 -13 5 -13 14 0 9 10 15 28 16 l27 1 -30 8 c-34 9 -87 11 -67 3z m92 -103
c0 -5 -4 -10 -10 -10 -5 0 -10 5 -10 10 0 6 5 10 10 10 6 0 10 -4 10 -10z"/>
<path d="M4715 1629 c-4 -6 -5 -12 -2 -15 2 -3 7 2 10 11 7 17 1 20 -8 4z"/>
<path d="M1395 1600 c-8 -13 5 -13 25 0 13 8 13 10 -2 10 -9 0 -20 -4 -23 -10z"/>
<path d="M1440 1594 c0 -8 5 -12 10 -9 6 4 8 11 5 16 -9 14 -15 11 -15 -7z"/>
<path d="M2613 1592 c23 -26 22 -46 -3 -39 -11 3 -20 1 -20 -3 0 -15 17 -20
49 -14 34 7 40 26 16 50 -8 9 -15 12 -15 8 0 -5 -5 -3 -12 4 -19 19 -33 14
-15 -6z"/>
<path d="M2567 1593 c-12 -12 -7 -22 8 -17 8 4 15 10 15 15 0 11 -14 12 -23 2z"/>
<path d="M4355 1560 c-3 -5 1 -10 10 -10 9 0 13 5 10 10 -3 6 -8 10 -10 10 -2
0 -7 -4 -10 -10z"/>
<path d="M4631 1536 c-6 -7 -8 -21 -5 -31 6 -15 9 -15 20 6 7 13 13 27 14 32
0 12 -17 8 -29 -7z"/>
<path d="M4675 1540 c-3 -5 -2 -10 4 -10 5 0 13 5 16 10 3 6 2 10 -4 10 -5 0
-13 -4 -16 -10z"/>
<path d="M1475 1530 c-4 -6 3 -10 14 -10 25 0 27 6 6 13 -8 4 -17 2 -20 -3z"/>
<path d="M2655 1520 c3 -5 1 -10 -4 -10 -6 0 -11 -7 -11 -15 0 -8 7 -15 15
-15 8 0 15 -4 15 -10 0 -5 7 -10 15 -10 19 0 19 15 -1 45 -15 23 -43 37 -29
15z"/>
<path d="M2610 1505 c0 -8 5 -15 10 -15 6 0 10 7 10 15 0 8 -4 15 -10 15 -5 0
-10 -7 -10 -15z"/>
<path d="M1192 1488 c3 -7 13 -15 24 -17 16 -3 17 -1 5 13 -16 19 -34 21 -29
4z"/>
<path d="M2566 1486 c7 -19 38 -22 32 -3 -3 6 -12 13 -21 15 -12 2 -15 -1 -11
-12z"/>
<path d="M4328 1473 c7 -3 16 -2 19 1 4 3 -2 6 -13 5 -11 0 -14 -3 -6 -6z"/>
<path d="M5610 1471 c0 -7 7 -25 15 -41 17 -33 7 -32 200 -36 66 -2 208 -7
315 -11 107 -5 210 -7 228 -5 30 4 32 7 32 42 l0 38 -102 6 c-57 3 -134 5
-173 4 -38 0 -170 3 -292 7 -172 6 -223 5 -223 -4z"/>
<path d="M1408 1463 c6 -2 18 -2 25 0 6 3 1 5 -13 5 -14 0 -19 -2 -12 -5z"/>
<path d="M2625 1460 c-3 -5 -1 -10 4 -10 6 0 11 5 11 10 0 6 -2 10 -4 10 -3 0
-8 -4 -11 -10z"/>
<path d="M4650 1460 c0 -5 5 -10 10 -10 6 0 10 5 10 10 0 6 -4 10 -10 10 -5 0
-10 -4 -10 -10z"/>
<path d="M1215 1439 c-4 -6 -4 -13 -1 -16 8 -8 36 5 36 17 0 13 -27 13 -35 -1z"/>
<path d="M4270 1428 c0 -10 19 -9 45 2 16 7 14 8 -12 7 -18 -1 -33 -5 -33 -9z"/>
<path d="M3083 1413 c9 -2 23 -2 30 0 6 3 -1 5 -18 5 -16 0 -22 -2 -12 -5z"/>
<path d="M4246 1374 c-5 -12 -2 -15 10 -10 8 3 18 6 20 6 2 0 4 5 4 10 0 16
-27 11 -34 -6z"/>
<path d="M2630 1370 c-13 -8 -12 -10 3 -10 9 0 17 5 17 10 0 12 -1 12 -20 0z"/>
<path d="M4844 1371 c-12 -12 -1 -22 23 -19 35 4 42 26 8 24 -15 0 -29 -3 -31
-5z"/>
<path d="M1360 1341 c0 -5 9 -7 20 -4 11 3 20 7 20 9 0 2 -9 4 -20 4 -11 0
-20 -4 -20 -9z"/>
<path d="M2685 1340 c-3 -5 -1 -10 4 -10 6 0 11 5 11 10 0 6 -2 10 -4 10 -3 0
-8 -4 -11 -10z"/>
<path d="M2630 1330 c-13 -8 -12 -10 3 -10 9 0 17 5 17 10 0 12 -1 12 -20 0z"/>
<path d="M4176 1327 c3 -10 9 -15 12 -12 3 3 0 11 -7 18 -10 9 -11 8 -5 -6z"/>
<path d="M4670 1325 c-10 -12 -10 -15 1 -15 26 0 59 12 59 21 0 15 -47 10 -60
-6z"/>
<path d="M1482 1323 c-10 -4 -10 -8 -1 -19 13 -16 45 -19 54 -4 3 6 -3 10 -14
10 -10 0 -21 4 -23 9 -1 4 -9 6 -16 4z"/>
<path d="M4813 1315 c-3 -9 -3 -18 -1 -21 3 -3 8 4 11 16 6 23 -1 27 -10 5z"/>
<path d="M2650 1285 c-16 -19 -7 -30 14 -18 9 5 12 13 7 21 -6 10 -11 10 -21
-3z"/>
<path d="M1430 1279 c-13 -9 -13 -10 2 -6 9 3 19 -1 22 -9 6 -16 46 -20 46 -4
0 6 8 10 18 11 11 1 9 4 -8 9 -36 12 -63 11 -80 -1z"/>
<path d="M4220 1280 c0 -5 5 -10 10 -10 6 0 10 5 10 10 0 6 -4 10 -10 10 -5 0
-10 -4 -10 -10z"/>
<path d="M4777 1279 c7 -7 15 -10 18 -7 3 3 -2 9 -12 12 -14 6 -15 5 -6 -5z"/>
<path d="M1110 1270 c-8 -5 -10 -10 -5 -10 6 0 17 5 25 10 8 5 11 10 5 10 -5
0 -17 -5 -25 -10z"/>
<path d="M1654 1265 c8 -8 19 -15 25 -15 6 0 8 7 5 15 -4 8 -15 15 -26 15 -17
0 -18 -2 -4 -15z"/>
<path d="M4760 1250 c0 -5 5 -10 10 -10 6 0 10 5 10 10 0 6 -4 10 -10 10 -5 0
-10 -4 -10 -10z"/>
<path d="M1441 1234 c0 -11 3 -14 6 -6 3 7 2 16 -1 19 -3 4 -6 -2 -5 -13z"/>
<path d="M2662 1243 c-6 -2 -10 -9 -7 -13 3 -5 -9 -14 -27 -19 -30 -8 -31 -9
-7 -10 14 -1 36 8 49 19 13 12 30 18 37 16 7 -3 13 -1 13 4 0 10 -36 12 -58 3z"/>
<path d="M2550 1230 c-11 -7 -7 -10 17 -10 17 0 35 5 38 10 8 13 -35 13 -55 0z"/>
<path d="M4348 1223 c7 -3 16 -2 19 1 4 3 -2 6 -13 5 -11 0 -14 -3 -6 -6z"/>
<path d="M1663 1213 c9 -2 23 -2 30 0 6 3 -1 5 -18 5 -16 0 -22 -2 -12 -5z"/>
<path d="M4134 1198 c-41 -32 -56 -52 -41 -56 7 -2 22 -9 35 -15 19 -9 25 -8
32 3 7 11 4 16 -10 18 -28 5 -25 18 9 38 17 10 28 21 25 26 -8 13 -19 10 -50
-14z"/>
<path d="M1596 1187 c3 -10 9 -15 12 -12 3 3 0 11 -7 18 -10 9 -11 8 -5 -6z"/>
<path d="M1924 1191 c4 -6 18 -11 32 -11 13 0 24 -5 24 -11 0 -8 -11 -9 -32
-5 -24 4 -29 3 -18 -4 28 -18 87 -2 65 19 -16 14 -79 25 -71 12z"/>
<path d="M2708 1193 c7 -3 16 -2 19 1 4 3 -2 6 -13 5 -11 0 -14 -3 -6 -6z"/>
<path d="M2601 1176 c-8 -9 -20 -15 -27 -12 -7 3 -16 1 -19 -3 -2 -5 3 -11 13
-13 22 -6 56 16 50 32 -2 8 -8 7 -17 -4z"/>
<path d="M2618 1130 c-14 -16 -23 -32 -18 -35 4 -3 13 2 20 10 10 11 16 12 26
4 7 -6 19 -9 26 -6 8 3 5 6 -6 6 -19 1 -19 1 -1 15 11 8 26 11 35 9 9 -4 7 0
-5 10 -29 24 -47 21 -77 -13z"/>
<path d="M4795 1150 c-3 -5 -1 -10 4 -10 6 0 11 5 11 10 0 6 -2 10 -4 10 -3 0
-8 -4 -11 -10z"/>
<path d="M680 1130 c0 -5 5 -10 10 -10 6 0 10 5 10 10 0 6 -4 10 -10 10 -5 0
-10 -4 -10 -10z"/>
<path d="M1060 1130 c0 -5 5 -10 10 -10 6 0 10 5 10 10 0 6 -4 10 -10 10 -5 0
-10 -4 -10 -10z"/>
<path d="M3985 1130 c3 -5 8 -10 11 -10 2 0 4 5 4 10 0 6 -5 10 -11 10 -5 0
-7 -4 -4 -10z"/>
<path d="M755 1120 c3 -5 11 -10 16 -10 6 0 7 5 4 10 -3 6 -11 10 -16 10 -6 0
-7 -4 -4 -10z"/>
<path d="M1568 1124 c-3 -3 -20 -6 -36 -6 -29 -1 -38 -15 -18 -29 9 -7 66 22
66 34 0 8 -5 9 -12 1z"/>
<path d="M4178 1123 c7 -3 16 -2 19 1 4 3 -2 6 -13 5 -11 0 -14 -3 -6 -6z"/>
<path d="M4915 1120 c-3 -5 -1 -10 4 -10 6 0 11 5 11 10 0 6 -2 10 -4 10 -3 0
-8 -4 -11 -10z"/>
<path d="M5770 1117 c0 -26 30 -49 54 -41 25 9 108 7 301 -6 77 -5 170 -10
208 -10 64 0 67 1 67 24 l0 23 -222 6 c-123 4 -265 10 -315 13 -81 6 -93 5
-93 -9z"/>
<path d="M2547 1112 c-16 -7 -16 -8 2 -24 18 -15 19 -15 17 8 0 13 -1 24 -1
23 0 0 -8 -4 -18 -7z"/>
<path d="M4053 1095 c-16 -12 -13 -14 24 -13 43 0 50 11 14 21 -11 3 -28 -1
-38 -8z"/>
<path d="M4140 1102 c0 -5 16 -8 35 -8 46 1 46 16 0 16 -19 0 -35 -4 -35 -8z"/>
<path d="M710 1091 c0 -6 5 -13 10 -16 6 -3 10 -15 10 -25 0 -22 35 -46 45
-31 3 6 0 13 -7 18 -7 4 -19 20 -27 36 -14 26 -31 36 -31 18z"/>
<path d="M1134 1089 c-3 -6 -1 -16 5 -22 8 -8 11 -5 11 11 0 24 -5 28 -16 11z"/>
<path d="M1594 1074 c3 -9 6 -18 6 -20 0 -2 8 -4 18 -4 16 1 16 1 -1 14 -14
11 -15 15 -5 19 8 3 6 6 -6 6 -13 1 -16 -4 -12 -15z"/>
<path d="M2649 1074 c-11 -14 -10 -16 9 -12 13 1 23 7 23 13 1 17 -17 16 -32
-1z"/>
<path d="M400 1074 c0 -9 32 -33 44 -34 5 0 -1 9 -14 20 -25 21 -30 24 -30 14z"/>
<path d="M1665 1070 c3 -5 8 -10 11 -10 2 0 4 5 4 10 0 6 -5 10 -11 10 -5 0
-7 -4 -4 -10z"/>
<path d="M4150 1065 c-8 -9 -8 -15 -2 -15 12 0 26 19 19 26 -2 2 -10 -2 -17
-11z"/>
<path d="M955 1059 c-4 -6 -5 -12 -2 -15 2 -3 7 2 10 11 7 17 1 20 -8 4z"/>
<path d="M2491 1041 c-10 -6 -3 -9 22 -8 22 1 32 4 24 9 -16 10 -29 10 -46 -1z"/>
<path d="M2690 1040 c-13 -8 -13 -11 2 -27 20 -20 37 -10 19 11 -9 11 -9 15 1
19 7 3 9 6 3 6 -5 0 -17 -4 -25 -9z"/>
<path d="M4063 1043 c20 -5 22 -14 5 -31 -15 -15 -2 -16 15 -2 7 6 21 17 32
25 18 13 17 14 -25 14 -25 -1 -37 -3 -27 -6z"/>
<path d="M865 1030 c3 -5 8 -10 11 -10 2 0 4 5 4 10 0 6 -5 10 -11 10 -5 0 -7
-4 -4 -10z"/>
<path d="M1080 1036 c0 -8 51 -13 56 -5 3 5 -9 9 -25 9 -17 0 -31 -2 -31 -4z"/>
<path d="M1688 1003 c7 -3 16 -2 19 1 4 3 -2 6 -13 5 -11 0 -14 -3 -6 -6z"/>
<path d="M5585 1000 c-3 -5 -1 -10 4 -10 6 0 11 5 11 10 0 6 -2 10 -4 10 -3 0
-8 -4 -11 -10z"/>
<path d="M1910 990 c0 -5 5 -10 10 -10 6 0 10 5 10 10 0 6 -4 10 -10 10 -5 0
-10 -4 -10 -10z"/>
<path d="M2881 984 c0 -11 3 -14 6 -6 3 7 2 16 -1 19 -3 4 -6 -2 -5 -13z"/>
<path d="M2528 983 c7 -3 16 -2 19 1 4 3 -2 6 -13 5 -11 0 -14 -3 -6 -6z"/>
<path d="M3960 981 c0 -16 23 -26 28 -12 3 8 8 7 16 -4 11 -15 14 -15 36 4
l25 21 -27 -10 c-18 -6 -29 -6 -33 0 -8 13 -45 13 -45 1z"/>
<path d="M4071 970 l-23 -20 31 0 c24 0 31 4 31 20 0 25 -8 25 -39 0z"/>
<path d="M1646 971 c-8 -12 20 -22 40 -14 13 5 13 7 2 14 -17 11 -35 11 -42 0z"/>
<path d="M2615 972 c-30 -5 -30 -5 -5 -11 34 -9 86 -1 69 10 -8 5 -18 8 -24 7
-5 0 -23 -3 -40 -6z"/>
<path d="M1875 961 c-10 -18 17 -23 33 -7 15 15 15 16 -5 16 -12 0 -24 -4 -28
-9z"/>
<path d="M4155 960 c-3 -5 1 -10 10 -10 9 0 13 5 10 10 -3 6 -8 10 -10 10 -2
0 -7 -4 -10 -10z"/>
<path d="M4816 945 c-9 -23 -8 -25 9 -25 17 0 19 9 6 28 -7 11 -10 10 -15 -3z"/>
<path d="M1800 946 c0 -2 9 -6 20 -9 11 -3 20 -1 20 4 0 5 -9 9 -20 9 -11 0
-20 -2 -20 -4z"/>
<path d="M2528 943 c6 -2 18 -2 25 0 6 3 1 5 -13 5 -14 0 -19 -2 -12 -5z"/>
<path d="M2840 940 c0 -5 5 -10 10 -10 6 0 10 5 10 10 0 6 -4 10 -10 10 -5 0
-10 -4 -10 -10z"/>
<path d="M2173 933 c9 -2 23 -2 30 0 6 3 -1 5 -18 5 -16 0 -22 -2 -12 -5z"/>
<path d="M3990 929 c-16 -4 -19 -7 -7 -8 20 -1 23 -21 5 -39 -8 -8 -8 -12 -1
-12 6 0 14 7 17 16 4 11 10 13 19 7 18 -13 80 -10 85 5 2 6 -3 12 -11 12 -9 0
-17 5 -19 11 -4 13 -54 17 -88 8z"/>
<path d="M391 914 c0 -11 3 -14 6 -6 3 7 2 16 -1 19 -3 4 -6 -2 -5 -13z"/>
<path d="M2600 919 c0 -5 5 -7 10 -4 6 3 10 8 10 11 0 2 -4 4 -10 4 -5 0 -10
-5 -10 -11z"/>
<path d="M4785 920 c-3 -5 -1 -10 4 -10 6 0 11 5 11 10 0 6 -2 10 -4 10 -3 0
-8 -4 -11 -10z"/>
<path d="M2645 900 c-10 -11 -15 -20 -11 -20 4 0 2 -9 -5 -21 -7 -14 -17 -19
-30 -16 -11 3 -16 1 -13 -4 3 -6 0 -16 -6 -24 -10 -12 -9 -15 6 -15 24 0 51
17 41 26 -4 4 2 14 13 21 14 10 19 21 15 34 -5 15 -1 19 14 19 12 0 21 5 21
10 0 17 -26 11 -45 -10z"/>
<path d="M2050 900 c0 -5 7 -10 15 -10 8 0 15 5 15 10 0 6 -7 10 -15 10 -8 0
-15 -4 -15 -10z"/>
<path d="M460 890 c0 -5 5 -10 10 -10 6 0 10 5 10 10 0 6 -4 10 -10 10 -5 0
-10 -4 -10 -10z"/>
<path d="M3670 890 c0 -5 5 -10 11 -10 5 0 7 5 4 10 -3 6 -8 10 -11 10 -2 0
-4 -4 -4 -10z"/>
<path d="M2565 880 c-3 -5 1 -10 9 -10 9 0 16 5 16 10 0 6 -4 10 -9 10 -6 0
-13 -4 -16 -10z"/>
<path d="M1955 870 c3 -5 8 -10 11 -10 2 0 4 5 4 10 0 6 -5 10 -11 10 -5 0 -7
-4 -4 -10z"/>
<path d="M3720 870 c-8 -5 -11 -12 -7 -17 5 -4 11 -3 15 3 4 6 14 14 22 17 13
5 13 5 0 6 -8 0 -22 -3 -30 -9z"/>
<path d="M3930 870 c0 -5 5 -10 10 -10 6 0 10 5 10 10 0 6 -4 10 -10 10 -5 0
-10 -4 -10 -10z"/>
<path d="M4236 864 c-8 -21 -4 -25 14 -14 11 7 12 12 4 20 -8 8 -13 7 -18 -6z"/>
<path d="M4889 863 c-13 -16 -12 -17 4 -4 16 13 21 21 13 21 -2 0 -10 -8 -17
-17z"/>
<path d="M2450 860 c0 -5 9 -10 20 -10 11 0 20 5 20 10 0 6 -9 10 -20 10 -11
0 -20 -4 -20 -10z"/>
<path d="M3865 855 c-16 -8 -23 -14 -14 -15 8 0 24 7 35 15 23 18 18 18 -21 0z"/>
<path d="M1793 845 c-7 -8 -13 -19 -13 -25 0 -18 15 -10 27 15 12 27 5 32 -14
10z"/>
<path d="M2380 845 c-11 -13 -7 -15 24 -15 33 0 36 2 22 15 -8 8 -19 15 -24
15 -5 0 -15 -7 -22 -15z"/>
<path d="M3585 850 c-3 -5 -1 -10 4 -10 6 0 11 5 11 10 0 6 -2 10 -4 10 -3 0
-8 -4 -11 -10z"/>
<path d="M4775 849 c-4 -6 -5 -13 -2 -16 7 -7 27 6 27 18 0 12 -17 12 -25 -2z"/>
<path d="M2300 841 c0 -5 -3 -16 -6 -24 -3 -9 3 -16 17 -20 30 -8 32 -5 20 27
-10 25 -31 36 -31 17z"/>
<path d="M2505 829 c-10 -15 1 -23 20 -15 9 3 13 10 10 16 -8 13 -22 13 -30
-1z"/>
<path d="M5910 829 c0 -8 14 -48 31 -89 34 -83 76 -198 90 -247 6 -18 16 -33
23 -33 19 0 29 -30 15 -47 -9 -10 -9 -26 1 -68 15 -61 29 -87 37 -67 8 20 106
15 134 -7 38 -29 81 -47 122 -50 l37 -3 0 102 c0 93 -2 102 -17 95 -35 -13
-73 -17 -90 -10 -10 4 -38 8 -63 10 -57 3 -81 9 -81 20 0 13 28 17 93 16 36 0
60 4 68 13 8 11 19 12 43 5 18 -5 35 -9 39 -9 5 0 8 61 8 135 l0 135 -42 1
c-127 3 -182 7 -271 17 -113 14 -118 16 -152 62 -14 19 -25 27 -25 19z"/>
<path d="M2160 820 c-13 -9 -13 -11 0 -20 8 -5 24 -9 35 -9 11 0 14 3 8 6 -7
2 -13 11 -13 19 0 16 -9 18 -30 4z"/>
<path d="M4088 823 c7 -3 16 -2 19 1 4 3 -2 6 -13 5 -11 0 -14 -3 -6 -6z"/>
<path d="M2357 814 c-11 -11 3 -24 25 -24 17 0 18 2 8 15 -13 16 -23 19 -33 9z"/>
<path d="M1831 801 c-10 -6 -9 -10 3 -14 8 -3 18 -2 21 3 8 13 -9 20 -24 11z"/>
<path d="M1975 790 c20 -22 34 -28 16 -7 -6 8 -8 17 -4 20 3 4 -2 7 -12 7 -17
0 -17 -1 0 -20z"/>
<path d="M2015 800 c-3 -5 1 -10 10 -10 9 0 13 5 10 10 -3 6 -8 10 -10 10 -2
0 -7 -4 -10 -10z"/>
<path d="M1746 791 c-4 -6 -17 -12 -29 -12 -20 -1 -20 -2 -2 -6 10 -3 30 -12
42 -20 31 -21 36 -13 14 21 -12 17 -21 24 -25 17z"/>
<path d="M1778 793 c7 -3 16 -2 19 1 4 3 -2 6 -13 5 -11 0 -14 -3 -6 -6z"/>
<path d="M2440 790 c0 -5 5 -10 10 -10 6 0 10 5 10 10 0 6 -4 10 -10 10 -5 0
-10 -4 -10 -10z"/>
<path d="M2113 783 c-18 -6 -16 -23 1 -23 17 0 30 16 19 23 -5 2 -14 2 -20 0z"/>
<path d="M1810 770 c0 -5 7 -10 16 -10 8 0 12 5 9 10 -3 6 -10 10 -16 10 -5 0
-9 -4 -9 -10z"/>
<path d="M3580 765 c-14 -16 -7 -45 11 -45 8 0 8 5 -2 16 -10 13 -10 17 1 24
8 5 12 12 9 15 -4 3 -12 -1 -19 -10z"/>
<path d="M3538 763 c7 -3 16 -2 19 1 4 3 -2 6 -13 5 -11 0 -14 -3 -6 -6z"/>
<path d="M3670 755 c0 -9 6 -12 15 -9 8 4 15 7 15 9 0 2 -7 5 -15 9 -9 3 -15
0 -15 -9z"/>
<path d="M3830 760 c-11 -7 -12 -12 -4 -20 8 -8 14 -7 23 4 14 17 1 28 -19 16z"/>
<path d="M4180 762 c0 -4 15 -15 34 -23 27 -12 33 -13 29 -2 -3 7 -11 13 -19
13 -8 0 -14 5 -14 10 0 6 -7 10 -15 10 -8 0 -15 -4 -15 -8z"/>
<path d="M4030 730 c0 -5 5 -10 10 -10 6 0 10 5 10 10 0 6 -4 10 -10 10 -5 0
-10 -4 -10 -10z"/>
<path d="M5457 734 c-4 -4 -4 -10 -1 -15 6 -10 34 0 34 12 0 10 -24 12 -33 3z"/>
<path d="M2050 720 c12 -8 12 -10 -5 -11 l-20 0 20 -9 c31 -13 55 -11 55 4 0
7 -10 16 -22 20 -34 9 -45 7 -28 -4z"/>
<path d="M2141 721 c-7 -5 -11 -15 -9 -22 3 -10 8 -7 17 9 13 24 12 26 -8 13z"/>
<path d="M1751 704 c0 -11 3 -14 6 -6 3 7 2 16 -1 19 -3 4 -6 -2 -5 -13z"/>
<path d="M3328 713 c6 -2 18 -2 25 0 6 3 1 5 -13 5 -14 0 -19 -2 -12 -5z"/>
<path d="M3436 705 c-9 -26 -7 -32 5 -12 6 10 9 21 6 23 -2 3 -7 -2 -11 -11z"/>
<path d="M3512 711 c-11 -6 -10 -10 1 -19 10 -9 17 -7 30 8 16 19 16 20 -1 20
-9 0 -23 -4 -30 -9z"/>
<path d="M3705 690 c-3 -5 -1 -10 4 -10 6 0 11 5 11 10 0 6 -2 10 -4 10 -3 0
-8 -4 -11 -10z"/>
<path d="M2636 677 c3 -10 9 -15 12 -12 3 3 0 11 -7 18 -10 9 -11 8 -5 -6z"/>
<path d="M4135 679 c-4 -6 -5 -13 -2 -16 7 -7 27 6 27 18 0 12 -17 12 -25 -2z"/>
<path d="M1770 670 c-11 -7 -7 -10 18 -10 20 0 31 4 27 10 -8 13 -26 13 -45 0z"/>
<path d="M3202 655 c-11 -13 -9 -15 8 -15 11 0 20 7 20 15 0 19 -11 19 -28 0z"/>
<path d="M3250 655 c0 -8 5 -15 10 -15 6 0 10 7 10 15 0 8 -4 15 -10 15 -5 0
-10 -7 -10 -15z"/>
<path d="M4927 652 c-10 -10 -14 -22 -10 -25 12 -12 21 -7 26 14 3 12 10 18
16 14 6 -3 11 -1 11 4 0 17 -25 13 -43 -7z"/>
<path d="M3365 640 c-16 -7 -17 -9 -3 -9 9 -1 20 4 23 9 7 11 7 11 -20 0z"/>
<path d="M3195 620 c-3 -5 -1 -10 4 -10 6 0 11 5 11 10 0 6 -2 10 -4 10 -3 0
-8 -4 -11 -10z"/>
<path d="M3120 600 c0 -5 7 -10 15 -10 8 0 15 5 15 10 0 6 -7 10 -15 10 -8 0
-15 -4 -15 -10z"/>
<path d="M2625 560 c-3 -5 -1 -10 4 -10 6 0 11 5 11 10 0 6 -2 10 -4 10 -3 0
-8 -4 -11 -10z"/>
<path d="M3955 530 c4 -6 11 -8 16 -5 14 9 11 15 -7 15 -8 0 -12 -5 -9 -10z"/>
<path d="M3095 505 c-19 -15 -19 -15 10 -13 17 2 29 7 28 13 -3 16 -18 16 -38
0z"/>
<path d="M5860 241 c0 -25 6 -27 13 -6 4 8 2 17 -3 20 -6 4 -10 -3 -10 -14z"/>
<path d="M5677 239 c7 -7 15 -10 18 -7 3 3 -2 9 -12 12 -14 6 -15 5 -6 -5z"/>
<path d="M3740 190 c0 -13 20 -13 40 0 12 8 9 10 -12 10 -16 0 -28 -4 -28 -10z"/>
<path d="M4580 170 c0 -5 5 -10 10 -10 6 0 10 5 10 10 0 6 -4 10 -10 10 -5 0
-10 -4 -10 -10z"/>
<path d="M5773 141 c-1 -14 0 -33 3 -41 4 -13 6 -13 14 0 14 21 12 57 -2 63
-8 3 -14 -5 -15 -22z"/>
<path d="M4340 141 c0 -12 6 -21 16 -21 9 0 14 7 12 17 -5 25 -28 28 -28 4z"/>
<path d="M5351 114 c0 -11 3 -14 6 -6 3 7 2 16 -1 19 -3 4 -6 -2 -5 -13z"/>
<path d="M2950 95 c11 -13 10 -18 -6 -30 -34 -27 -55 -37 -70 -31 -23 9 -281
19 -309 12 -32 -8 -32 -20 0 -34 18 -8 105 -12 278 -11 139 1 240 4 225 6 -22
3 -28 10 -28 28 0 18 -7 26 -26 31 -19 5 -22 9 -12 15 9 6 5 9 -14 9 -16 0
-28 5 -28 10 0 6 -5 10 -11 10 -8 0 -7 -5 1 -15z"/>
<path d="M5751 94 c0 -11 3 -14 6 -6 3 7 2 16 -1 19 -3 4 -6 -2 -5 -13z"/>
<path d="M4310 90 c0 -5 5 -10 10 -10 6 0 10 5 10 10 0 6 -4 10 -10 10 -5 0
-10 -4 -10 -10z"/>
<path d="M5304 45 c-9 -50 0 -53 13 -5 5 22 7 40 2 40 -4 0 -11 -16 -15 -35z"/>
<path d="M5665 70 c3 -5 8 -10 11 -10 2 0 4 5 4 10 0 6 -5 10 -11 10 -5 0 -7
-4 -4 -10z"/>
<path d="M5513 58 c-6 -7 -13 -23 -16 -35 -5 -22 -3 -23 81 -22 68 1 82 3 67
11 -11 6 -30 22 -42 35 -24 25 -74 31 -90 11z m87 -25 c0 -10 -6 -13 -16 -9
-9 3 -27 6 -40 6 -41 0 -26 15 16 17 30 1 40 -3 40 -14z"/>
<path d="M5733 55 c-6 -17 23 -56 41 -54 6 0 6 3 -1 6 -7 2 -13 11 -13 19 0 7
6 11 14 8 16 -6 30 11 21 26 -5 8 -11 7 -21 -1 -10 -8 -14 -8 -14 0 0 16 -20
13 -27 -4z"/>
<path d="M5830 45 c0 -8 5 -15 10 -15 6 0 10 7 10 15 0 8 -4 15 -10 15 -5 0
-10 -7 -10 -15z"/>
<path d="M3234 35 c4 -12 2 -16 -7 -12 -7 3 -24 -1 -38 -9 -23 -13 -22 -13 24
-14 44 0 48 2 45 22 -2 12 -9 24 -17 26 -10 3 -12 0 -7 -13z"/>
<path d="M5220 10 c0 -5 7 -10 16 -10 8 0 12 5 9 10 -3 6 -10 10 -16 10 -5 0
-9 -4 -9 -10z"/>
</g>
</svg>
